<svg width="15" height="16" viewBox="0 0 15 16" fill="none" xmlns="http://www.w3.org/2000/svg">
<path d="M7.58992 1.6C6.71698 1.6 5.87979 1.93714 5.26253 2.53726C4.64526 3.13737 4.29849 3.95131 4.29849 4.8C4.29849 5.64869 4.64526 6.46263 5.26253 7.06274C5.87979 7.66286 6.71698 8 7.58992 8C8.46286 8 9.30005 7.66286 9.91731 7.06274C10.5346 6.46263 10.8813 5.64869 10.8813 4.8C10.8813 3.95131 10.5346 3.13737 9.91731 2.53726C9.30005 1.93714 8.46286 1.6 7.58992 1.6ZM2.65278 4.8C2.65278 3.52696 3.17294 2.30606 4.09883 1.40589C5.02472 0.505713 6.28051 0 7.58992 0C8.89933 0 10.1551 0.505713 11.081 1.40589C12.0069 2.30606 12.5271 3.52696 12.5271 4.8C12.5271 6.07304 12.0069 7.29394 11.081 8.19411C10.1551 9.09429 8.89933 9.6 7.58992 9.6C6.28051 9.6 5.02472 9.09429 4.09883 8.19411C3.17294 7.29394 2.65278 6.07304 2.65278 4.8ZM4.29849 12.8C3.64378 12.8 3.01589 13.0529 2.55295 13.5029C2.09 13.953 1.82992 14.5635 1.82992 15.2C1.82992 15.4122 1.74322 15.6157 1.58891 15.7657C1.43459 15.9157 1.2253 16 1.00706 16C0.788826 16 0.579529 15.9157 0.425213 15.7657C0.270898 15.6157 0.184204 15.4122 0.184204 15.2C0.184204 14.1391 0.617672 13.1217 1.38925 12.3716C2.16083 11.6214 3.20731 11.2 4.29849 11.2H10.8813C11.9725 11.2 13.019 11.6214 13.7906 12.3716C14.5622 13.1217 14.9956 14.1391 14.9956 15.2C14.9956 15.4122 14.9089 15.6157 14.7546 15.7657C14.6003 15.9157 14.391 16 14.1728 16C13.9545 16 13.7452 15.9157 13.5909 15.7657C13.4366 15.6157 13.3499 15.4122 13.3499 15.2C13.3499 14.5635 13.0898 13.953 12.6269 13.5029C12.1639 13.0529 11.5361 12.8 10.8813 12.8H4.29849Z" fill="white"/>
</svg>
