<svg width="16" height="18" viewBox="0 0 16 18" fill="none" xmlns="http://www.w3.org/2000/svg">
<path fill-rule="evenodd" clip-rule="evenodd" d="M8.13211 2.11628C7.67533 2.11628 7.23727 2.29269 6.91429 2.6067C6.5913 2.92072 6.40985 3.34661 6.40985 3.7907V3.98419C6.8362 3.97674 7.30389 3.97674 7.81827 3.97674H8.44671C8.95956 3.97674 9.42801 3.97674 9.85513 3.98419V3.7907C9.85513 3.57075 9.81056 3.35295 9.72396 3.14975C9.63736 2.94656 9.51043 2.76194 9.35042 2.60644C9.19042 2.45095 9.00046 2.32763 8.79142 2.24352C8.58238 2.15942 8.35834 2.11618 8.13211 2.11628ZM11.0025 4.03479V3.7907C11.0025 3.05056 10.7001 2.34073 10.1618 1.81738C9.6235 1.29402 8.89339 1 8.13211 1C7.37082 1 6.64072 1.29402 6.1024 1.81738C5.56409 2.34073 5.26167 3.05056 5.26167 3.7907V4.03479C5.15222 4.04372 5.04735 4.05414 4.94478 4.06679C4.17168 4.15981 3.53482 4.35479 2.99289 4.79163C2.45171 5.22847 2.13711 5.80149 1.90059 6.52335C1.67096 7.22288 1.49797 8.12112 1.28058 9.25154L1.2645 9.3334C0.956793 10.9282 0.714911 12.1851 0.66975 13.1756C0.623823 14.1914 0.779975 15.0324 1.36937 15.7222C1.95877 16.4128 2.78009 16.7165 3.81498 16.8601C4.82537 17 6.13964 17 7.80909 17H8.45589C10.1246 17 11.4396 17 12.4492 16.8601C13.4841 16.7165 14.3062 16.4128 14.8956 15.7222C15.485 15.0324 15.6396 14.1914 15.5945 13.1756C15.5501 12.1851 15.3074 10.9282 14.9997 9.3334L14.9844 9.25154C14.7662 8.12112 14.5925 7.22214 14.3644 6.52335C14.1271 5.80149 13.8133 5.22847 13.2713 4.79163C12.7302 4.35479 12.0925 4.15907 11.3194 4.06679C11.214 4.05422 11.1084 4.04355 11.0025 4.03479ZM5.08562 5.17488C4.43116 5.25302 4.03543 5.40112 3.72619 5.65116C3.41771 5.89972 3.19496 6.25023 2.99442 6.86195C2.79004 7.48707 2.62853 8.31907 2.40196 9.49414C2.08353 11.144 1.85773 12.322 1.81716 13.2247C1.77735 14.1103 1.92432 14.6238 2.2527 15.01C2.58184 15.3948 3.07402 15.6292 3.97725 15.7542C4.89579 15.8822 6.12969 15.8837 7.85578 15.8837H8.40843C10.1345 15.8837 11.3677 15.8822 12.287 15.755C13.1902 15.6292 13.6824 15.3948 14.0115 15.01C14.3407 14.6246 14.4869 14.1111 14.4478 13.224C14.4065 12.3228 14.1807 11.144 13.8623 9.49414C13.6357 8.31833 13.4749 7.48781 13.2698 6.86195C13.0692 6.25023 12.8473 5.89972 12.538 5.65042C12.2288 5.40112 11.8338 5.25302 11.1786 5.17414C10.5081 5.09377 9.63774 5.09302 8.40767 5.09302H7.85654C6.62647 5.09302 5.75615 5.09377 5.08562 5.17488Z" fill="white" stroke="white" stroke-width="0.5"/>
</svg>
