<svg width="24" height="20" viewBox="0 0 24 20" fill="none" xmlns="http://www.w3.org/2000/svg">
<path id="Vector" d="M17.2085 0C15.0575 0 13.1741 0.925218 12.0002 2.48913C10.8262 0.925218 8.94287 0 6.79183 0C5.07957 0.00193039 3.43798 0.683141 2.22723 1.89418C1.01648 3.10522 0.335426 4.74719 0.333496 6.45986C0.333496 13.7532 11.145 19.6567 11.6054 19.9005C11.7267 19.9658 11.8624 20 12.0002 20C12.138 20 12.2736 19.9658 12.395 19.9005C12.8554 19.6567 23.6668 13.7532 23.6668 6.45986C23.6649 4.74719 22.9839 3.10522 21.7731 1.89418C20.5623 0.683141 18.9208 0.00193039 17.2085 0ZM12.0002 18.2126C10.0981 17.104 2.00016 12.0539 2.00016 6.45986C2.00182 5.18924 2.50718 3.97113 3.40544 3.07266C4.30369 2.1742 5.52151 1.66871 6.79183 1.66706C8.81787 1.66706 10.5189 2.74648 11.2293 4.48022C11.2921 4.6331 11.3989 4.76386 11.5362 4.85588C11.6734 4.94791 11.8349 4.99704 12.0002 4.99704C12.1654 4.99704 12.3269 4.94791 12.4642 4.85588C12.6014 4.76386 12.7082 4.6331 12.771 4.48022C13.4814 2.74336 15.1825 1.66706 17.2085 1.66706C18.4788 1.66871 19.6966 2.1742 20.5949 3.07266C21.4931 3.97113 21.9985 5.18924 22.0002 6.45986C22.0002 12.0455 13.9002 17.103 12.0002 18.2126Z" fill="black" fill-opacity="0.6"/>
</svg>
