<svg width="20" height="18" viewBox="0 0 20 18" fill="none" xmlns="http://www.w3.org/2000/svg">
<path d="M14.4956 1C12.7748 1 11.2681 1.74017 10.3289 2.9913C9.38977 1.74017 7.88311 1 6.16227 1C4.79246 1.00154 3.4792 1.54651 2.51059 2.51534C1.54199 3.48418 0.997149 4.79775 0.995605 6.16789C0.995605 12.0026 9.64477 16.7254 10.0131 16.9204C10.1102 16.9727 10.2187 17 10.3289 17C10.4392 17 10.5477 16.9727 10.6448 16.9204C11.0131 16.7254 19.6623 12.0026 19.6623 6.16789C19.6607 4.79775 19.1159 3.48418 18.1473 2.51534C17.1787 1.54651 15.8654 1.00154 14.4956 1ZM10.3289 15.5701C8.80727 14.6832 2.32894 10.6431 2.32894 6.16789C2.33026 5.15139 2.73455 4.1769 3.45316 3.45813C4.17176 2.73936 5.14602 2.33497 6.16227 2.33365C7.78311 2.33365 9.14394 3.19718 9.71227 4.58418C9.7625 4.70648 9.84794 4.81109 9.95774 4.88471C10.0675 4.95832 10.1968 4.99763 10.3289 4.99763C10.4611 4.99763 10.5903 4.95832 10.7001 4.88471C10.8099 4.81109 10.8954 4.70648 10.9456 4.58418C11.5139 3.19468 12.8748 2.33365 14.4956 2.33365C15.5119 2.33497 16.4861 2.73936 17.2047 3.45813C17.9233 4.1769 18.3276 5.15139 18.3289 6.16789C18.3289 10.6364 11.8489 14.6824 10.3289 15.5701Z" fill="white" stroke="white" stroke-width="0.3"/>
</svg>
