<svg width="18" height="16" viewBox="0 0 18 16" fill="none" xmlns="http://www.w3.org/2000/svg">
<path d="M7.70579 13.6502C9.26336 13.6499 10.776 13.143 12.003 12.2101C12.003 12.2101 15.1612 15.721 15.8605 15.9605C16.5599 16.2 17.4642 15.2933 17.1013 14.7542C16.7385 14.2151 13.2438 11.0038 13.2438 11.0038C14.2038 9.81082 14.7255 8.33981 14.7259 6.82512C14.7259 3.06192 11.5765 0 7.70579 0C3.83507 0 0.685669 3.06192 0.685669 6.82512C0.685669 10.5883 3.83507 13.6502 7.70579 13.6502ZM7.70579 1.70628C10.6095 1.70628 12.9709 4.00208 12.9709 6.82512C12.9709 9.64816 10.6095 11.944 7.70579 11.944C4.80209 11.944 2.4407 9.64816 2.4407 6.82512C2.4407 4.00208 4.80209 1.70628 7.70579 1.70628Z" fill="white"/>
</svg>
