<svg width="1527" height="24" viewBox="0 0 1527 24" fill="none" xmlns="http://www.w3.org/2000/svg">
<path d="M-9.82 19L-14.46 5H-11.76L-7.62 17.66H-8.96L-4.66 5H-2.26L1.92 17.66H0.62L4.86 5H7.34L2.7 19H-0.0599992L-3.88 7.58H-3.16L-7.04 19H-9.82ZM7.02891 19L13.3289 5H15.8889L22.2089 19H19.4889L14.0689 6.38H15.1089L9.70891 19H7.02891ZM9.92891 15.76L10.6289 13.72H18.1889L18.8889 15.76H9.92891ZM23.9894 19V5H29.7494C30.9894 5 32.0494 5.2 32.9294 5.6C33.8227 6 34.5094 6.57333 34.9894 7.32C35.4694 8.06667 35.7094 8.95333 35.7094 9.98C35.7094 11.0067 35.4694 11.8933 34.9894 12.64C34.5094 13.3733 33.8227 13.94 32.9294 14.34C32.0494 14.7267 30.9894 14.92 29.7494 14.92H25.4294L26.5894 13.74V19H23.9894ZM33.1494 19L29.6094 13.92H32.3894L35.9494 19H33.1494ZM26.5894 14.02L25.4294 12.78H29.6294C30.776 12.78 31.636 12.5333 32.2094 12.04C32.796 11.5467 33.0894 10.86 33.0894 9.98C33.0894 9.08667 32.796 8.4 32.2094 7.92C31.636 7.44 30.776 7.2 29.6294 7.2H25.4294L26.5894 5.92V14.02ZM38.6183 19V5H40.7583L46.8783 15.22H45.7583L51.7783 5H53.9183L53.9383 19H51.4783L51.4583 8.86H51.9783L46.8583 17.4H45.6983L40.4983 8.86H41.0983V19H38.6183ZM67.2872 19.2C66.3139 19.2 65.4405 19.04 64.6672 18.72C63.8939 18.4 63.2872 17.96 62.8472 17.4C62.4072 16.84 62.1872 16.1933 62.1872 15.46C62.1872 14.7933 62.3339 14.1933 62.6272 13.66C62.9205 13.1267 63.3872 12.62 64.0272 12.14C64.6672 11.6467 65.4872 11.1533 66.4872 10.66C67.2739 10.2733 67.8872 9.93333 68.3272 9.64C68.7805 9.34667 69.0939 9.06667 69.2672 8.8C69.4539 8.53333 69.5472 8.25333 69.5472 7.96C69.5472 7.56 69.4072 7.24 69.1272 7C68.8472 6.74667 68.4472 6.62 67.9272 6.62C67.3672 6.62 66.9272 6.76 66.6072 7.04C66.3005 7.30667 66.1472 7.66 66.1472 8.1C66.1472 8.32667 66.1872 8.54667 66.2672 8.76C66.3605 8.97333 66.5205 9.21333 66.7472 9.48C66.9739 9.74667 67.3005 10.0867 67.7272 10.5L75.1272 17.6L73.7472 19.22L65.7472 11.54C65.2939 11.1 64.9272 10.6933 64.6472 10.32C64.3672 9.94667 64.1672 9.58667 64.0472 9.24C63.9272 8.88 63.8672 8.51333 63.8672 8.14C63.8672 7.48667 64.0339 6.91333 64.3672 6.42C64.7005 5.91333 65.1739 5.52667 65.7872 5.26C66.4005 4.98 67.1139 4.84 67.9272 4.84C68.6872 4.84 69.3405 4.96667 69.8872 5.22C70.4472 5.46 70.8805 5.81333 71.1872 6.28C71.5072 6.73333 71.6672 7.28 71.6672 7.92C71.6672 8.48 71.5272 9 71.2472 9.48C70.9672 9.94667 70.5272 10.3933 69.9272 10.82C69.3405 11.2467 68.5539 11.6933 67.5672 12.16C66.8339 12.52 66.2539 12.86 65.8272 13.18C65.4005 13.5 65.0939 13.82 64.9072 14.14C64.7205 14.46 64.6272 14.8133 64.6272 15.2C64.6272 15.5867 64.7405 15.9267 64.9672 16.22C65.2072 16.5133 65.5405 16.7467 65.9672 16.92C66.3939 17.08 66.8939 17.16 67.4672 17.16C68.3205 17.16 69.0939 16.9733 69.7872 16.6C70.4939 16.2133 71.0872 15.64 71.5672 14.88C72.0472 14.12 72.3939 13.18 72.6072 12.06L74.6272 12.72C74.3472 14.0667 73.8605 15.2267 73.1672 16.2C72.4872 17.16 71.6472 17.9 70.6472 18.42C69.6472 18.94 68.5272 19.2 67.2872 19.2ZM85.2156 15.7L85.0756 12.62L92.4156 5H95.3356L89.2356 11.48L87.7956 13.06L85.2156 15.7ZM82.8956 19V5H85.4956V19H82.8956ZM92.6556 19L87.2956 12.62L89.0156 10.72L95.6956 19H92.6556ZM97.4659 19V5H99.6059L108.386 15.78H107.326V5H109.906V19H107.766L98.9859 8.22H100.046V19H97.4659ZM113.657 19V5H116.257V19H113.657ZM122.884 19V7.2H118.244V5H130.124V7.2H125.484V19H122.884ZM135.111 19V7.2H130.471V5H142.351V7.2H137.711V19H135.111ZM146.702 10.82H153.662V12.96H146.702V10.82ZM146.902 16.82H154.802V19H144.302V5H154.522V7.18H146.902V16.82ZM157.7 19V5H163.82C165.34 5 166.674 5.29333 167.82 5.88C168.967 6.46667 169.86 7.28 170.5 8.32C171.14 9.36 171.46 10.5867 171.46 12C171.46 13.4 171.14 14.6267 170.5 15.68C169.86 16.72 168.967 17.5333 167.82 18.12C166.674 18.7067 165.34 19 163.82 19H157.7ZM160.3 16.8H163.7C164.754 16.8 165.66 16.6 166.42 16.2C167.194 15.8 167.787 15.24 168.2 14.52C168.627 13.8 168.84 12.96 168.84 12C168.84 11.0267 168.627 10.1867 168.2 9.48C167.787 8.76 167.194 8.2 166.42 7.8C165.66 7.4 164.754 7.2 163.7 7.2H160.3V16.8Z" fill="black"/>
<path d="M406.18 19L401.54 5H404.24L408.38 17.66H407.04L411.34 5H413.74L417.92 17.66H416.62L420.86 5H423.34L418.7 19H415.94L412.12 7.58H412.84L408.96 19H406.18ZM423.029 19L429.329 5H431.889L438.209 19H435.489L430.069 6.38H431.109L425.709 19H423.029ZM425.929 15.76L426.629 13.72H434.189L434.889 15.76H425.929ZM439.989 19V5H445.749C446.989 5 448.049 5.2 448.929 5.6C449.823 6 450.509 6.57333 450.989 7.32C451.469 8.06667 451.709 8.95333 451.709 9.98C451.709 11.0067 451.469 11.8933 450.989 12.64C450.509 13.3733 449.823 13.94 448.929 14.34C448.049 14.7267 446.989 14.92 445.749 14.92H441.429L442.589 13.74V19H439.989ZM449.149 19L445.609 13.92H448.389L451.949 19H449.149ZM442.589 14.02L441.429 12.78H445.629C446.776 12.78 447.636 12.5333 448.209 12.04C448.796 11.5467 449.089 10.86 449.089 9.98C449.089 9.08667 448.796 8.4 448.209 7.92C447.636 7.44 446.776 7.2 445.629 7.2H441.429L442.589 5.92V14.02ZM454.618 19V5H456.758L462.878 15.22H461.758L467.778 5H469.918L469.938 19H467.478L467.458 8.86H467.978L462.858 17.4H461.698L456.498 8.86H457.098V19H454.618ZM483.287 19.2C482.314 19.2 481.441 19.04 480.667 18.72C479.894 18.4 479.287 17.96 478.847 17.4C478.407 16.84 478.187 16.1933 478.187 15.46C478.187 14.7933 478.334 14.1933 478.627 13.66C478.921 13.1267 479.387 12.62 480.027 12.14C480.667 11.6467 481.487 11.1533 482.487 10.66C483.274 10.2733 483.887 9.93333 484.327 9.64C484.781 9.34667 485.094 9.06667 485.267 8.8C485.454 8.53333 485.547 8.25333 485.547 7.96C485.547 7.56 485.407 7.24 485.127 7C484.847 6.74667 484.447 6.62 483.927 6.62C483.367 6.62 482.927 6.76 482.607 7.04C482.301 7.30667 482.147 7.66 482.147 8.1C482.147 8.32667 482.187 8.54667 482.267 8.76C482.361 8.97333 482.521 9.21333 482.747 9.48C482.974 9.74667 483.301 10.0867 483.727 10.5L491.127 17.6L489.747 19.22L481.747 11.54C481.294 11.1 480.927 10.6933 480.647 10.32C480.367 9.94667 480.167 9.58667 480.047 9.24C479.927 8.88 479.867 8.51333 479.867 8.14C479.867 7.48667 480.034 6.91333 480.367 6.42C480.701 5.91333 481.174 5.52667 481.787 5.26C482.401 4.98 483.114 4.84 483.927 4.84C484.687 4.84 485.341 4.96667 485.887 5.22C486.447 5.46 486.881 5.81333 487.187 6.28C487.507 6.73333 487.667 7.28 487.667 7.92C487.667 8.48 487.527 9 487.247 9.48C486.967 9.94667 486.527 10.3933 485.927 10.82C485.341 11.2467 484.554 11.6933 483.567 12.16C482.834 12.52 482.254 12.86 481.827 13.18C481.401 13.5 481.094 13.82 480.907 14.14C480.721 14.46 480.627 14.8133 480.627 15.2C480.627 15.5867 480.741 15.9267 480.967 16.22C481.207 16.5133 481.541 16.7467 481.967 16.92C482.394 17.08 482.894 17.16 483.467 17.16C484.321 17.16 485.094 16.9733 485.787 16.6C486.494 16.2133 487.087 15.64 487.567 14.88C488.047 14.12 488.394 13.18 488.607 12.06L490.627 12.72C490.347 14.0667 489.861 15.2267 489.167 16.2C488.487 17.16 487.647 17.9 486.647 18.42C485.647 18.94 484.527 19.2 483.287 19.2ZM501.216 15.7L501.076 12.62L508.416 5H511.336L505.236 11.48L503.796 13.06L501.216 15.7ZM498.896 19V5H501.496V19H498.896ZM508.656 19L503.296 12.62L505.016 10.72L511.696 19H508.656ZM513.466 19V5H515.606L524.386 15.78H523.326V5H525.906V19H523.766L514.986 8.22H516.046V19H513.466ZM529.657 19V5H532.257V19H529.657ZM538.884 19V7.2H534.244V5H546.124V7.2H541.484V19H538.884ZM551.111 19V7.2H546.471V5H558.351V7.2H553.711V19H551.111ZM562.702 10.82H569.662V12.96H562.702V10.82ZM562.902 16.82H570.802V19H560.302V5H570.522V7.18H562.902V16.82ZM573.7 19V5H579.82C581.34 5 582.674 5.29333 583.82 5.88C584.967 6.46667 585.86 7.28 586.5 8.32C587.14 9.36 587.46 10.5867 587.46 12C587.46 13.4 587.14 14.6267 586.5 15.68C585.86 16.72 584.967 17.5333 583.82 18.12C582.674 18.7067 581.34 19 579.82 19H573.7ZM576.3 16.8H579.7C580.754 16.8 581.66 16.6 582.42 16.2C583.194 15.8 583.787 15.24 584.2 14.52C584.627 13.8 584.84 12.96 584.84 12C584.84 11.0267 584.627 10.1867 584.2 9.48C583.787 8.76 583.194 8.2 582.42 7.8C581.66 7.4 580.754 7.2 579.7 7.2H576.3V16.8Z" fill="black"/>
<path d="M822.18 19L817.54 5H820.24L824.38 17.66H823.04L827.34 5H829.74L833.92 17.66H832.62L836.86 5H839.34L834.7 19H831.94L828.12 7.58H828.84L824.96 19H822.18ZM839.029 19L845.329 5H847.889L854.209 19H851.489L846.069 6.38H847.109L841.709 19H839.029ZM841.929 15.76L842.629 13.72H850.189L850.889 15.76H841.929ZM855.989 19V5H861.749C862.989 5 864.049 5.2 864.929 5.6C865.823 6 866.509 6.57333 866.989 7.32C867.469 8.06667 867.709 8.95333 867.709 9.98C867.709 11.0067 867.469 11.8933 866.989 12.64C866.509 13.3733 865.823 13.94 864.929 14.34C864.049 14.7267 862.989 14.92 861.749 14.92H857.429L858.589 13.74V19H855.989ZM865.149 19L861.609 13.92H864.389L867.949 19H865.149ZM858.589 14.02L857.429 12.78H861.629C862.776 12.78 863.636 12.5333 864.209 12.04C864.796 11.5467 865.089 10.86 865.089 9.98C865.089 9.08667 864.796 8.4 864.209 7.92C863.636 7.44 862.776 7.2 861.629 7.2H857.429L858.589 5.92V14.02ZM870.618 19V5H872.758L878.878 15.22H877.758L883.778 5H885.918L885.938 19H883.478L883.458 8.86H883.978L878.858 17.4H877.698L872.498 8.86H873.098V19H870.618ZM899.287 19.2C898.314 19.2 897.441 19.04 896.667 18.72C895.894 18.4 895.287 17.96 894.847 17.4C894.407 16.84 894.187 16.1933 894.187 15.46C894.187 14.7933 894.334 14.1933 894.627 13.66C894.921 13.1267 895.387 12.62 896.027 12.14C896.667 11.6467 897.487 11.1533 898.487 10.66C899.274 10.2733 899.887 9.93333 900.327 9.64C900.781 9.34667 901.094 9.06667 901.267 8.8C901.454 8.53333 901.547 8.25333 901.547 7.96C901.547 7.56 901.407 7.24 901.127 7C900.847 6.74667 900.447 6.62 899.927 6.62C899.367 6.62 898.927 6.76 898.607 7.04C898.301 7.30667 898.147 7.66 898.147 8.1C898.147 8.32667 898.187 8.54667 898.267 8.76C898.361 8.97333 898.521 9.21333 898.747 9.48C898.974 9.74667 899.301 10.0867 899.727 10.5L907.127 17.6L905.747 19.22L897.747 11.54C897.294 11.1 896.927 10.6933 896.647 10.32C896.367 9.94667 896.167 9.58667 896.047 9.24C895.927 8.88 895.867 8.51333 895.867 8.14C895.867 7.48667 896.034 6.91333 896.367 6.42C896.701 5.91333 897.174 5.52667 897.787 5.26C898.401 4.98 899.114 4.84 899.927 4.84C900.687 4.84 901.341 4.96667 901.887 5.22C902.447 5.46 902.881 5.81333 903.187 6.28C903.507 6.73333 903.667 7.28 903.667 7.92C903.667 8.48 903.527 9 903.247 9.48C902.967 9.94667 902.527 10.3933 901.927 10.82C901.341 11.2467 900.554 11.6933 899.567 12.16C898.834 12.52 898.254 12.86 897.827 13.18C897.401 13.5 897.094 13.82 896.907 14.14C896.721 14.46 896.627 14.8133 896.627 15.2C896.627 15.5867 896.741 15.9267 896.967 16.22C897.207 16.5133 897.541 16.7467 897.967 16.92C898.394 17.08 898.894 17.16 899.467 17.16C900.321 17.16 901.094 16.9733 901.787 16.6C902.494 16.2133 903.087 15.64 903.567 14.88C904.047 14.12 904.394 13.18 904.607 12.06L906.627 12.72C906.347 14.0667 905.861 15.2267 905.167 16.2C904.487 17.16 903.647 17.9 902.647 18.42C901.647 18.94 900.527 19.2 899.287 19.2ZM917.216 15.7L917.076 12.62L924.416 5H927.336L921.236 11.48L919.796 13.06L917.216 15.7ZM914.896 19V5H917.496V19H914.896ZM924.656 19L919.296 12.62L921.016 10.72L927.696 19H924.656ZM929.466 19V5H931.606L940.386 15.78H939.326V5H941.906V19H939.766L930.986 8.22H932.046V19H929.466ZM945.657 19V5H948.257V19H945.657ZM954.884 19V7.2H950.244V5H962.124V7.2H957.484V19H954.884ZM967.111 19V7.2H962.471V5H974.351V7.2H969.711V19H967.111ZM978.702 10.82H985.662V12.96H978.702V10.82ZM978.902 16.82H986.802V19H976.302V5H986.522V7.18H978.902V16.82ZM989.7 19V5H995.82C997.34 5 998.674 5.29333 999.82 5.88C1000.97 6.46667 1001.86 7.28 1002.5 8.32C1003.14 9.36 1003.46 10.5867 1003.46 12C1003.46 13.4 1003.14 14.6267 1002.5 15.68C1001.86 16.72 1000.97 17.5333 999.82 18.12C998.674 18.7067 997.34 19 995.82 19H989.7ZM992.3 16.8H995.7C996.754 16.8 997.66 16.6 998.42 16.2C999.194 15.8 999.787 15.24 1000.2 14.52C1000.63 13.8 1000.84 12.96 1000.84 12C1000.84 11.0267 1000.63 10.1867 1000.2 9.48C999.787 8.76 999.194 8.2 998.42 7.8C997.66 7.4 996.754 7.2 995.7 7.2H992.3V16.8Z" fill="black"/>
<path d="M198.18 19L193.54 5H196.24L200.38 17.66H199.04L203.34 5H205.74L209.92 17.66H208.62L212.86 5H215.34L210.7 19H207.94L204.12 7.58H204.84L200.96 19H198.18ZM215.029 19L221.329 5H223.889L230.209 19H227.489L222.069 6.38H223.109L217.709 19H215.029ZM217.929 15.76L218.629 13.72H226.189L226.889 15.76H217.929ZM231.989 19V5H237.749C238.989 5 240.049 5.2 240.929 5.6C241.823 6 242.509 6.57333 242.989 7.32C243.469 8.06667 243.709 8.95333 243.709 9.98C243.709 11.0067 243.469 11.8933 242.989 12.64C242.509 13.3733 241.823 13.94 240.929 14.34C240.049 14.7267 238.989 14.92 237.749 14.92H233.429L234.589 13.74V19H231.989ZM241.149 19L237.609 13.92H240.389L243.949 19H241.149ZM234.589 14.02L233.429 12.78H237.629C238.776 12.78 239.636 12.5333 240.209 12.04C240.796 11.5467 241.089 10.86 241.089 9.98C241.089 9.08667 240.796 8.4 240.209 7.92C239.636 7.44 238.776 7.2 237.629 7.2H233.429L234.589 5.92V14.02ZM246.618 19V5H248.758L254.878 15.22H253.758L259.778 5H261.918L261.938 19H259.478L259.458 8.86H259.978L254.858 17.4H253.698L248.498 8.86H249.098V19H246.618ZM275.287 19.2C274.314 19.2 273.441 19.04 272.667 18.72C271.894 18.4 271.287 17.96 270.847 17.4C270.407 16.84 270.187 16.1933 270.187 15.46C270.187 14.7933 270.334 14.1933 270.627 13.66C270.921 13.1267 271.387 12.62 272.027 12.14C272.667 11.6467 273.487 11.1533 274.487 10.66C275.274 10.2733 275.887 9.93333 276.327 9.64C276.781 9.34667 277.094 9.06667 277.267 8.8C277.454 8.53333 277.547 8.25333 277.547 7.96C277.547 7.56 277.407 7.24 277.127 7C276.847 6.74667 276.447 6.62 275.927 6.62C275.367 6.62 274.927 6.76 274.607 7.04C274.301 7.30667 274.147 7.66 274.147 8.1C274.147 8.32667 274.187 8.54667 274.267 8.76C274.361 8.97333 274.521 9.21333 274.747 9.48C274.974 9.74667 275.301 10.0867 275.727 10.5L283.127 17.6L281.747 19.22L273.747 11.54C273.294 11.1 272.927 10.6933 272.647 10.32C272.367 9.94667 272.167 9.58667 272.047 9.24C271.927 8.88 271.867 8.51333 271.867 8.14C271.867 7.48667 272.034 6.91333 272.367 6.42C272.701 5.91333 273.174 5.52667 273.787 5.26C274.401 4.98 275.114 4.84 275.927 4.84C276.687 4.84 277.341 4.96667 277.887 5.22C278.447 5.46 278.881 5.81333 279.187 6.28C279.507 6.73333 279.667 7.28 279.667 7.92C279.667 8.48 279.527 9 279.247 9.48C278.967 9.94667 278.527 10.3933 277.927 10.82C277.341 11.2467 276.554 11.6933 275.567 12.16C274.834 12.52 274.254 12.86 273.827 13.18C273.401 13.5 273.094 13.82 272.907 14.14C272.721 14.46 272.627 14.8133 272.627 15.2C272.627 15.5867 272.741 15.9267 272.967 16.22C273.207 16.5133 273.541 16.7467 273.967 16.92C274.394 17.08 274.894 17.16 275.467 17.16C276.321 17.16 277.094 16.9733 277.787 16.6C278.494 16.2133 279.087 15.64 279.567 14.88C280.047 14.12 280.394 13.18 280.607 12.06L282.627 12.72C282.347 14.0667 281.861 15.2267 281.167 16.2C280.487 17.16 279.647 17.9 278.647 18.42C277.647 18.94 276.527 19.2 275.287 19.2ZM293.216 15.7L293.076 12.62L300.416 5H303.336L297.236 11.48L295.796 13.06L293.216 15.7ZM290.896 19V5H293.496V19H290.896ZM300.656 19L295.296 12.62L297.016 10.72L303.696 19H300.656ZM305.466 19V5H307.606L316.386 15.78H315.326V5H317.906V19H315.766L306.986 8.22H308.046V19H305.466ZM321.657 19V5H324.257V19H321.657ZM330.884 19V7.2H326.244V5H338.124V7.2H333.484V19H330.884ZM343.111 19V7.2H338.471V5H350.351V7.2H345.711V19H343.111ZM354.702 10.82H361.662V12.96H354.702V10.82ZM354.902 16.82H362.802V19H352.302V5H362.522V7.18H354.902V16.82ZM365.7 19V5H371.82C373.34 5 374.674 5.29333 375.82 5.88C376.967 6.46667 377.86 7.28 378.5 8.32C379.14 9.36 379.46 10.5867 379.46 12C379.46 13.4 379.14 14.6267 378.5 15.68C377.86 16.72 376.967 17.5333 375.82 18.12C374.674 18.7067 373.34 19 371.82 19H365.7ZM368.3 16.8H371.7C372.754 16.8 373.66 16.6 374.42 16.2C375.194 15.8 375.787 15.24 376.2 14.52C376.627 13.8 376.84 12.96 376.84 12C376.84 11.0267 376.627 10.1867 376.2 9.48C375.787 8.76 375.194 8.2 374.42 7.8C373.66 7.4 372.754 7.2 371.7 7.2H368.3V16.8Z" fill="black"/>
<path d="M614.18 19L609.54 5H612.24L616.38 17.66H615.04L619.34 5H621.74L625.92 17.66H624.62L628.86 5H631.34L626.7 19H623.94L620.12 7.58H620.84L616.96 19H614.18ZM631.029 19L637.329 5H639.889L646.209 19H643.489L638.069 6.38H639.109L633.709 19H631.029ZM633.929 15.76L634.629 13.72H642.189L642.889 15.76H633.929ZM647.989 19V5H653.749C654.989 5 656.049 5.2 656.929 5.6C657.823 6 658.509 6.57333 658.989 7.32C659.469 8.06667 659.709 8.95333 659.709 9.98C659.709 11.0067 659.469 11.8933 658.989 12.64C658.509 13.3733 657.823 13.94 656.929 14.34C656.049 14.7267 654.989 14.92 653.749 14.92H649.429L650.589 13.74V19H647.989ZM657.149 19L653.609 13.92H656.389L659.949 19H657.149ZM650.589 14.02L649.429 12.78H653.629C654.776 12.78 655.636 12.5333 656.209 12.04C656.796 11.5467 657.089 10.86 657.089 9.98C657.089 9.08667 656.796 8.4 656.209 7.92C655.636 7.44 654.776 7.2 653.629 7.2H649.429L650.589 5.92V14.02ZM662.618 19V5H664.758L670.878 15.22H669.758L675.778 5H677.918L677.938 19H675.478L675.458 8.86H675.978L670.858 17.4H669.698L664.498 8.86H665.098V19H662.618ZM691.287 19.2C690.314 19.2 689.441 19.04 688.667 18.72C687.894 18.4 687.287 17.96 686.847 17.4C686.407 16.84 686.187 16.1933 686.187 15.46C686.187 14.7933 686.334 14.1933 686.627 13.66C686.921 13.1267 687.387 12.62 688.027 12.14C688.667 11.6467 689.487 11.1533 690.487 10.66C691.274 10.2733 691.887 9.93333 692.327 9.64C692.781 9.34667 693.094 9.06667 693.267 8.8C693.454 8.53333 693.547 8.25333 693.547 7.96C693.547 7.56 693.407 7.24 693.127 7C692.847 6.74667 692.447 6.62 691.927 6.62C691.367 6.62 690.927 6.76 690.607 7.04C690.301 7.30667 690.147 7.66 690.147 8.1C690.147 8.32667 690.187 8.54667 690.267 8.76C690.361 8.97333 690.521 9.21333 690.747 9.48C690.974 9.74667 691.301 10.0867 691.727 10.5L699.127 17.6L697.747 19.22L689.747 11.54C689.294 11.1 688.927 10.6933 688.647 10.32C688.367 9.94667 688.167 9.58667 688.047 9.24C687.927 8.88 687.867 8.51333 687.867 8.14C687.867 7.48667 688.034 6.91333 688.367 6.42C688.701 5.91333 689.174 5.52667 689.787 5.26C690.401 4.98 691.114 4.84 691.927 4.84C692.687 4.84 693.341 4.96667 693.887 5.22C694.447 5.46 694.881 5.81333 695.187 6.28C695.507 6.73333 695.667 7.28 695.667 7.92C695.667 8.48 695.527 9 695.247 9.48C694.967 9.94667 694.527 10.3933 693.927 10.82C693.341 11.2467 692.554 11.6933 691.567 12.16C690.834 12.52 690.254 12.86 689.827 13.18C689.401 13.5 689.094 13.82 688.907 14.14C688.721 14.46 688.627 14.8133 688.627 15.2C688.627 15.5867 688.741 15.9267 688.967 16.22C689.207 16.5133 689.541 16.7467 689.967 16.92C690.394 17.08 690.894 17.16 691.467 17.16C692.321 17.16 693.094 16.9733 693.787 16.6C694.494 16.2133 695.087 15.64 695.567 14.88C696.047 14.12 696.394 13.18 696.607 12.06L698.627 12.72C698.347 14.0667 697.861 15.2267 697.167 16.2C696.487 17.16 695.647 17.9 694.647 18.42C693.647 18.94 692.527 19.2 691.287 19.2ZM709.216 15.7L709.076 12.62L716.416 5H719.336L713.236 11.48L711.796 13.06L709.216 15.7ZM706.896 19V5H709.496V19H706.896ZM716.656 19L711.296 12.62L713.016 10.72L719.696 19H716.656ZM721.466 19V5H723.606L732.386 15.78H731.326V5H733.906V19H731.766L722.986 8.22H724.046V19H721.466ZM737.657 19V5H740.257V19H737.657ZM746.884 19V7.2H742.244V5H754.124V7.2H749.484V19H746.884ZM759.111 19V7.2H754.471V5H766.351V7.2H761.711V19H759.111ZM770.702 10.82H777.662V12.96H770.702V10.82ZM770.902 16.82H778.802V19H768.302V5H778.522V7.18H770.902V16.82ZM781.7 19V5H787.82C789.34 5 790.674 5.29333 791.82 5.88C792.967 6.46667 793.86 7.28 794.5 8.32C795.14 9.36 795.46 10.5867 795.46 12C795.46 13.4 795.14 14.6267 794.5 15.68C793.86 16.72 792.967 17.5333 791.82 18.12C790.674 18.7067 789.34 19 787.82 19H781.7ZM784.3 16.8H787.7C788.754 16.8 789.66 16.6 790.42 16.2C791.194 15.8 791.787 15.24 792.2 14.52C792.627 13.8 792.84 12.96 792.84 12C792.84 11.0267 792.627 10.1867 792.2 9.48C791.787 8.76 791.194 8.2 790.42 7.8C789.66 7.4 788.754 7.2 787.7 7.2H784.3V16.8Z" fill="black"/>
<path d="M1030.18 19L1025.54 5H1028.24L1032.38 17.66H1031.04L1035.34 5H1037.74L1041.92 17.66H1040.62L1044.86 5H1047.34L1042.7 19H1039.94L1036.12 7.58H1036.84L1032.96 19H1030.18ZM1047.03 19L1053.33 5H1055.89L1062.21 19H1059.49L1054.07 6.38H1055.11L1049.71 19H1047.03ZM1049.93 15.76L1050.63 13.72H1058.19L1058.89 15.76H1049.93ZM1063.99 19V5H1069.75C1070.99 5 1072.05 5.2 1072.93 5.6C1073.82 6 1074.51 6.57333 1074.99 7.32C1075.47 8.06667 1075.71 8.95333 1075.71 9.98C1075.71 11.0067 1075.47 11.8933 1074.99 12.64C1074.51 13.3733 1073.82 13.94 1072.93 14.34C1072.05 14.7267 1070.99 14.92 1069.75 14.92H1065.43L1066.59 13.74V19H1063.99ZM1073.15 19L1069.61 13.92H1072.39L1075.95 19H1073.15ZM1066.59 14.02L1065.43 12.78H1069.63C1070.78 12.78 1071.64 12.5333 1072.21 12.04C1072.8 11.5467 1073.09 10.86 1073.09 9.98C1073.09 9.08667 1072.8 8.4 1072.21 7.92C1071.64 7.44 1070.78 7.2 1069.63 7.2H1065.43L1066.59 5.92V14.02ZM1078.62 19V5H1080.76L1086.88 15.22H1085.76L1091.78 5H1093.92L1093.94 19H1091.48L1091.46 8.86H1091.98L1086.86 17.4H1085.7L1080.5 8.86H1081.1V19H1078.62ZM1107.29 19.2C1106.31 19.2 1105.44 19.04 1104.67 18.72C1103.89 18.4 1103.29 17.96 1102.85 17.4C1102.41 16.84 1102.19 16.1933 1102.19 15.46C1102.19 14.7933 1102.33 14.1933 1102.63 13.66C1102.92 13.1267 1103.39 12.62 1104.03 12.14C1104.67 11.6467 1105.49 11.1533 1106.49 10.66C1107.27 10.2733 1107.89 9.93333 1108.33 9.64C1108.78 9.34667 1109.09 9.06667 1109.27 8.8C1109.45 8.53333 1109.55 8.25333 1109.55 7.96C1109.55 7.56 1109.41 7.24 1109.13 7C1108.85 6.74667 1108.45 6.62 1107.93 6.62C1107.37 6.62 1106.93 6.76 1106.61 7.04C1106.3 7.30667 1106.15 7.66 1106.15 8.1C1106.15 8.32667 1106.19 8.54667 1106.27 8.76C1106.36 8.97333 1106.52 9.21333 1106.75 9.48C1106.97 9.74667 1107.3 10.0867 1107.73 10.5L1115.13 17.6L1113.75 19.22L1105.75 11.54C1105.29 11.1 1104.93 10.6933 1104.65 10.32C1104.37 9.94667 1104.17 9.58667 1104.05 9.24C1103.93 8.88 1103.87 8.51333 1103.87 8.14C1103.87 7.48667 1104.03 6.91333 1104.37 6.42C1104.7 5.91333 1105.17 5.52667 1105.79 5.26C1106.4 4.98 1107.11 4.84 1107.93 4.84C1108.69 4.84 1109.34 4.96667 1109.89 5.22C1110.45 5.46 1110.88 5.81333 1111.19 6.28C1111.51 6.73333 1111.67 7.28 1111.67 7.92C1111.67 8.48 1111.53 9 1111.25 9.48C1110.97 9.94667 1110.53 10.3933 1109.93 10.82C1109.34 11.2467 1108.55 11.6933 1107.57 12.16C1106.83 12.52 1106.25 12.86 1105.83 13.18C1105.4 13.5 1105.09 13.82 1104.91 14.14C1104.72 14.46 1104.63 14.8133 1104.63 15.2C1104.63 15.5867 1104.74 15.9267 1104.97 16.22C1105.21 16.5133 1105.54 16.7467 1105.97 16.92C1106.39 17.08 1106.89 17.16 1107.47 17.16C1108.32 17.16 1109.09 16.9733 1109.79 16.6C1110.49 16.2133 1111.09 15.64 1111.57 14.88C1112.05 14.12 1112.39 13.18 1112.61 12.06L1114.63 12.72C1114.35 14.0667 1113.86 15.2267 1113.17 16.2C1112.49 17.16 1111.65 17.9 1110.65 18.42C1109.65 18.94 1108.53 19.2 1107.29 19.2ZM1125.22 15.7L1125.08 12.62L1132.42 5H1135.34L1129.24 11.48L1127.8 13.06L1125.22 15.7ZM1122.9 19V5H1125.5V19H1122.9ZM1132.66 19L1127.3 12.62L1129.02 10.72L1135.7 19H1132.66ZM1137.47 19V5H1139.61L1148.39 15.78H1147.33V5H1149.91V19H1147.77L1138.99 8.22H1140.05V19H1137.47ZM1153.66 19V5H1156.26V19H1153.66ZM1162.88 19V7.2H1158.24V5H1170.12V7.2H1165.48V19H1162.88ZM1175.11 19V7.2H1170.47V5H1182.35V7.2H1177.71V19H1175.11ZM1186.7 10.82H1193.66V12.96H1186.7V10.82ZM1186.9 16.82H1194.8V19H1184.3V5H1194.52V7.18H1186.9V16.82ZM1197.7 19V5H1203.82C1205.34 5 1206.67 5.29333 1207.82 5.88C1208.97 6.46667 1209.86 7.28 1210.5 8.32C1211.14 9.36 1211.46 10.5867 1211.46 12C1211.46 13.4 1211.14 14.6267 1210.5 15.68C1209.86 16.72 1208.97 17.5333 1207.82 18.12C1206.67 18.7067 1205.34 19 1203.82 19H1197.7ZM1200.3 16.8H1203.7C1204.75 16.8 1205.66 16.6 1206.42 16.2C1207.19 15.8 1207.79 15.24 1208.2 14.52C1208.63 13.8 1208.84 12.96 1208.84 12C1208.84 11.0267 1208.63 10.1867 1208.2 9.48C1207.79 8.76 1207.19 8.2 1206.42 7.8C1205.66 7.4 1204.75 7.2 1203.7 7.2H1200.3V16.8Z" fill="black"/>
<path d="M1238.18 19L1233.54 5H1236.24L1240.38 17.66H1239.04L1243.34 5H1245.74L1249.92 17.66H1248.62L1252.86 5H1255.34L1250.7 19H1247.94L1244.12 7.58H1244.84L1240.96 19H1238.18ZM1255.03 19L1261.33 5H1263.89L1270.21 19H1267.49L1262.07 6.38H1263.11L1257.71 19H1255.03ZM1257.93 15.76L1258.63 13.72H1266.19L1266.89 15.76H1257.93ZM1271.99 19V5H1277.75C1278.99 5 1280.05 5.2 1280.93 5.6C1281.82 6 1282.51 6.57333 1282.99 7.32C1283.47 8.06667 1283.71 8.95333 1283.71 9.98C1283.71 11.0067 1283.47 11.8933 1282.99 12.64C1282.51 13.3733 1281.82 13.94 1280.93 14.34C1280.05 14.7267 1278.99 14.92 1277.75 14.92H1273.43L1274.59 13.74V19H1271.99ZM1281.15 19L1277.61 13.92H1280.39L1283.95 19H1281.15ZM1274.59 14.02L1273.43 12.78H1277.63C1278.78 12.78 1279.64 12.5333 1280.21 12.04C1280.8 11.5467 1281.09 10.86 1281.09 9.98C1281.09 9.08667 1280.8 8.4 1280.21 7.92C1279.64 7.44 1278.78 7.2 1277.63 7.2H1273.43L1274.59 5.92V14.02ZM1286.62 19V5H1288.76L1294.88 15.22H1293.76L1299.78 5H1301.92L1301.94 19H1299.48L1299.46 8.86H1299.98L1294.86 17.4H1293.7L1288.5 8.86H1289.1V19H1286.62ZM1315.29 19.2C1314.31 19.2 1313.44 19.04 1312.67 18.72C1311.89 18.4 1311.29 17.96 1310.85 17.4C1310.41 16.84 1310.19 16.1933 1310.19 15.46C1310.19 14.7933 1310.33 14.1933 1310.63 13.66C1310.92 13.1267 1311.39 12.62 1312.03 12.14C1312.67 11.6467 1313.49 11.1533 1314.49 10.66C1315.27 10.2733 1315.89 9.93333 1316.33 9.64C1316.78 9.34667 1317.09 9.06667 1317.27 8.8C1317.45 8.53333 1317.55 8.25333 1317.55 7.96C1317.55 7.56 1317.41 7.24 1317.13 7C1316.85 6.74667 1316.45 6.62 1315.93 6.62C1315.37 6.62 1314.93 6.76 1314.61 7.04C1314.3 7.30667 1314.15 7.66 1314.15 8.1C1314.15 8.32667 1314.19 8.54667 1314.27 8.76C1314.36 8.97333 1314.52 9.21333 1314.75 9.48C1314.97 9.74667 1315.3 10.0867 1315.73 10.5L1323.13 17.6L1321.75 19.22L1313.75 11.54C1313.29 11.1 1312.93 10.6933 1312.65 10.32C1312.37 9.94667 1312.17 9.58667 1312.05 9.24C1311.93 8.88 1311.87 8.51333 1311.87 8.14C1311.87 7.48667 1312.03 6.91333 1312.37 6.42C1312.7 5.91333 1313.17 5.52667 1313.79 5.26C1314.4 4.98 1315.11 4.84 1315.93 4.84C1316.69 4.84 1317.34 4.96667 1317.89 5.22C1318.45 5.46 1318.88 5.81333 1319.19 6.28C1319.51 6.73333 1319.67 7.28 1319.67 7.92C1319.67 8.48 1319.53 9 1319.25 9.48C1318.97 9.94667 1318.53 10.3933 1317.93 10.82C1317.34 11.2467 1316.55 11.6933 1315.57 12.16C1314.83 12.52 1314.25 12.86 1313.83 13.18C1313.4 13.5 1313.09 13.82 1312.91 14.14C1312.72 14.46 1312.63 14.8133 1312.63 15.2C1312.63 15.5867 1312.74 15.9267 1312.97 16.22C1313.21 16.5133 1313.54 16.7467 1313.97 16.92C1314.39 17.08 1314.89 17.16 1315.47 17.16C1316.32 17.16 1317.09 16.9733 1317.79 16.6C1318.49 16.2133 1319.09 15.64 1319.57 14.88C1320.05 14.12 1320.39 13.18 1320.61 12.06L1322.63 12.72C1322.35 14.0667 1321.86 15.2267 1321.17 16.2C1320.49 17.16 1319.65 17.9 1318.65 18.42C1317.65 18.94 1316.53 19.2 1315.29 19.2ZM1333.22 15.7L1333.08 12.62L1340.42 5H1343.34L1337.24 11.48L1335.8 13.06L1333.22 15.7ZM1330.9 19V5H1333.5V19H1330.9ZM1340.66 19L1335.3 12.62L1337.02 10.72L1343.7 19H1340.66ZM1345.47 19V5H1347.61L1356.39 15.78H1355.33V5H1357.91V19H1355.77L1346.99 8.22H1348.05V19H1345.47ZM1361.66 19V5H1364.26V19H1361.66ZM1370.88 19V7.2H1366.24V5H1378.12V7.2H1373.48V19H1370.88ZM1383.11 19V7.2H1378.47V5H1390.35V7.2H1385.71V19H1383.11ZM1394.7 10.82H1401.66V12.96H1394.7V10.82ZM1394.9 16.82H1402.8V19H1392.3V5H1402.52V7.18H1394.9V16.82ZM1405.7 19V5H1411.82C1413.34 5 1414.67 5.29333 1415.82 5.88C1416.97 6.46667 1417.86 7.28 1418.5 8.32C1419.14 9.36 1419.46 10.5867 1419.46 12C1419.46 13.4 1419.14 14.6267 1418.5 15.68C1417.86 16.72 1416.97 17.5333 1415.82 18.12C1414.67 18.7067 1413.34 19 1411.82 19H1405.7ZM1408.3 16.8H1411.7C1412.75 16.8 1413.66 16.6 1414.42 16.2C1415.19 15.8 1415.79 15.24 1416.2 14.52C1416.63 13.8 1416.84 12.96 1416.84 12C1416.84 11.0267 1416.63 10.1867 1416.2 9.48C1415.79 8.76 1415.19 8.2 1414.42 7.8C1413.66 7.4 1412.75 7.2 1411.7 7.2H1408.3V16.8Z" fill="black"/>
<path d="M1446.18 19L1441.54 5H1444.24L1448.38 17.66H1447.04L1451.34 5H1453.74L1457.92 17.66H1456.62L1460.86 5H1463.34L1458.7 19H1455.94L1452.12 7.58H1452.84L1448.96 19H1446.18ZM1463.03 19L1469.33 5H1471.89L1478.21 19H1475.49L1470.07 6.38H1471.11L1465.71 19H1463.03ZM1465.93 15.76L1466.63 13.72H1474.19L1474.89 15.76H1465.93ZM1479.99 19V5H1485.75C1486.99 5 1488.05 5.2 1488.93 5.6C1489.82 6 1490.51 6.57333 1490.99 7.32C1491.47 8.06667 1491.71 8.95333 1491.71 9.98C1491.71 11.0067 1491.47 11.8933 1490.99 12.64C1490.51 13.3733 1489.82 13.94 1488.93 14.34C1488.05 14.7267 1486.99 14.92 1485.75 14.92H1481.43L1482.59 13.74V19H1479.99ZM1489.15 19L1485.61 13.92H1488.39L1491.95 19H1489.15ZM1482.59 14.02L1481.43 12.78H1485.63C1486.78 12.78 1487.64 12.5333 1488.21 12.04C1488.8 11.5467 1489.09 10.86 1489.09 9.98C1489.09 9.08667 1488.8 8.4 1488.21 7.92C1487.64 7.44 1486.78 7.2 1485.63 7.2H1481.43L1482.59 5.92V14.02ZM1494.62 19V5H1496.76L1502.88 15.22H1501.76L1507.78 5H1509.92L1509.94 19H1507.48L1507.46 8.86H1507.98L1502.86 17.4H1501.7L1496.5 8.86H1497.1V19H1494.62ZM1523.29 19.2C1522.31 19.2 1521.44 19.04 1520.67 18.72C1519.89 18.4 1519.29 17.96 1518.85 17.4C1518.41 16.84 1518.19 16.1933 1518.19 15.46C1518.19 14.7933 1518.33 14.1933 1518.63 13.66C1518.92 13.1267 1519.39 12.62 1520.03 12.14C1520.67 11.6467 1521.49 11.1533 1522.49 10.66C1523.27 10.2733 1523.89 9.93333 1524.33 9.64C1524.78 9.34667 1525.09 9.06667 1525.27 8.8C1525.45 8.53333 1525.55 8.25333 1525.55 7.96C1525.55 7.56 1525.41 7.24 1525.13 7C1524.85 6.74667 1524.45 6.62 1523.93 6.62C1523.37 6.62 1522.93 6.76 1522.61 7.04C1522.3 7.30667 1522.15 7.66 1522.15 8.1C1522.15 8.32667 1522.19 8.54667 1522.27 8.76C1522.36 8.97333 1522.52 9.21333 1522.75 9.48C1522.97 9.74667 1523.3 10.0867 1523.73 10.5L1531.13 17.6L1529.75 19.22L1521.75 11.54C1521.29 11.1 1520.93 10.6933 1520.65 10.32C1520.37 9.94667 1520.17 9.58667 1520.05 9.24C1519.93 8.88 1519.87 8.51333 1519.87 8.14C1519.87 7.48667 1520.03 6.91333 1520.37 6.42C1520.7 5.91333 1521.17 5.52667 1521.79 5.26C1522.4 4.98 1523.11 4.84 1523.93 4.84C1524.69 4.84 1525.34 4.96667 1525.89 5.22C1526.45 5.46 1526.88 5.81333 1527.19 6.28C1527.51 6.73333 1527.67 7.28 1527.67 7.92C1527.67 8.48 1527.53 9 1527.25 9.48C1526.97 9.94667 1526.53 10.3933 1525.93 10.82C1525.34 11.2467 1524.55 11.6933 1523.57 12.16C1522.83 12.52 1522.25 12.86 1521.83 13.18C1521.4 13.5 1521.09 13.82 1520.91 14.14C1520.72 14.46 1520.63 14.8133 1520.63 15.2C1520.63 15.5867 1520.74 15.9267 1520.97 16.22C1521.21 16.5133 1521.54 16.7467 1521.97 16.92C1522.39 17.08 1522.89 17.16 1523.47 17.16C1524.32 17.16 1525.09 16.9733 1525.79 16.6C1526.49 16.2133 1527.09 15.64 1527.57 14.88C1528.05 14.12 1528.39 13.18 1528.61 12.06L1530.63 12.72C1530.35 14.0667 1529.86 15.2267 1529.17 16.2C1528.49 17.16 1527.65 17.9 1526.65 18.42C1525.65 18.94 1524.53 19.2 1523.29 19.2ZM1541.22 15.7L1541.08 12.62L1548.42 5H1551.34L1545.24 11.48L1543.8 13.06L1541.22 15.7ZM1538.9 19V5H1541.5V19H1538.9ZM1548.66 19L1543.3 12.62L1545.02 10.72L1551.7 19H1548.66ZM1553.47 19V5H1555.61L1564.39 15.78H1563.33V5H1565.91V19H1563.77L1554.99 8.22H1556.05V19H1553.47ZM1569.66 19V5H1572.26V19H1569.66ZM1578.88 19V7.2H1574.24V5H1586.12V7.2H1581.48V19H1578.88ZM1591.11 19V7.2H1586.47V5H1598.35V7.2H1593.71V19H1591.11ZM1602.7 10.82H1609.66V12.96H1602.7V10.82ZM1602.9 16.82H1610.8V19H1600.3V5H1610.52V7.18H1602.9V16.82ZM1613.7 19V5H1619.82C1621.34 5 1622.67 5.29333 1623.82 5.88C1624.97 6.46667 1625.86 7.28 1626.5 8.32C1627.14 9.36 1627.46 10.5867 1627.46 12C1627.46 13.4 1627.14 14.6267 1626.5 15.68C1625.86 16.72 1624.97 17.5333 1623.82 18.12C1622.67 18.7067 1621.34 19 1619.82 19H1613.7ZM1616.3 16.8H1619.7C1620.75 16.8 1621.66 16.6 1622.42 16.2C1623.19 15.8 1623.79 15.24 1624.2 14.52C1624.63 13.8 1624.84 12.96 1624.84 12C1624.84 11.0267 1624.63 10.1867 1624.2 9.48C1623.79 8.76 1623.19 8.2 1622.42 7.8C1621.66 7.4 1620.75 7.2 1619.7 7.2H1616.3V16.8Z" fill="black"/>
</svg>
