<svg width="1527" height="24" viewBox="0 0 1527 24" fill="none" xmlns="http://www.w3.org/2000/svg">
<path d="M-62.78 19.2C-63.8733 19.2 -64.92 19.0467 -65.92 18.74C-66.92 18.42 -67.7133 18.0133 -68.3 17.52L-67.4 15.5C-66.84 15.94 -66.1467 16.3067 -65.32 16.6C-64.4933 16.8933 -63.6467 17.04 -62.78 17.04C-62.0467 17.04 -61.4533 16.96 -61 16.8C-60.5467 16.64 -60.2133 16.4267 -60 16.16C-59.7867 15.88 -59.68 15.5667 -59.68 15.22C-59.68 14.7933 -59.8333 14.4533 -60.14 14.2C-60.4467 13.9333 -60.8467 13.7267 -61.34 13.58C-61.82 13.42 -62.36 13.2733 -62.96 13.14C-63.5467 13.0067 -64.14 12.8533 -64.74 12.68C-65.3267 12.4933 -65.8667 12.26 -66.36 11.98C-66.84 11.6867 -67.2333 11.3 -67.54 10.82C-67.8467 10.34 -68 9.72667 -68 8.98C-68 8.22 -67.8 7.52667 -67.4 6.9C-66.9867 6.26 -66.3667 5.75333 -65.54 5.38C-64.7 4.99333 -63.64 4.8 -62.36 4.8C-61.52 4.8 -60.6867 4.90667 -59.86 5.12C-59.0333 5.33333 -58.3133 5.64 -57.7 6.04L-58.52 8.06C-59.1467 7.68667 -59.7933 7.41333 -60.46 7.24C-61.1267 7.05333 -61.7667 6.96 -62.38 6.96C-63.1 6.96 -63.6867 7.04667 -64.14 7.22C-64.58 7.39333 -64.9067 7.62 -65.12 7.9C-65.32 8.18 -65.42 8.5 -65.42 8.86C-65.42 9.28667 -65.2733 9.63333 -64.98 9.9C-64.6733 10.1533 -64.28 10.3533 -63.8 10.5C-63.3067 10.6467 -62.76 10.7933 -62.16 10.94C-61.56 11.0733 -60.9667 11.2267 -60.38 11.4C-59.78 11.5733 -59.24 11.8 -58.76 12.08C-58.2667 12.36 -57.8733 12.74 -57.58 13.22C-57.2733 13.7 -57.12 14.3067 -57.12 15.04C-57.12 15.7867 -57.3267 16.48 -57.74 17.12C-58.14 17.7467 -58.76 18.2533 -59.6 18.64C-60.44 19.0133 -61.5 19.2 -62.78 19.2ZM-48.5219 19.2C-50.4419 19.2 -51.9485 18.66 -53.0419 17.58C-54.1219 16.5 -54.6619 14.94 -54.6619 12.9V5H-52.0619V12.8C-52.0619 14.24 -51.7552 15.2867 -51.1419 15.94C-50.5152 16.5933 -49.6352 16.92 -48.5019 16.92C-47.3685 16.92 -46.4952 16.5933 -45.8819 15.94C-45.2685 15.2867 -44.9619 14.24 -44.9619 12.8V5H-42.4019V12.9C-42.4019 14.94 -42.9485 16.5 -44.0419 17.58C-45.1219 18.66 -46.6152 19.2 -48.5219 19.2ZM-38.7606 19V5H-36.6206L-30.5006 15.22H-31.6206L-25.6006 5H-23.4606L-23.4406 19H-25.9006L-25.9206 8.86H-25.4006L-30.5206 17.4H-31.6806L-36.8806 8.86H-36.2806V19H-38.7606ZM-19.6591 19V5H-17.5191L-11.3991 15.22H-12.5191L-6.49906 5H-4.35906L-4.33906 19H-6.79906L-6.81906 8.86H-6.29906L-11.4191 17.4H-12.5791L-17.7791 8.86H-17.1791V19H-19.6591ZM1.8425 10.82H8.8025V12.96H1.8425V10.82ZM2.0425 16.82H9.9425V19H-0.5575V5H9.6625V7.18H2.0425V16.82ZM12.8409 19V5H18.6009C19.8409 5 20.9009 5.2 21.7809 5.6C22.6743 6 23.3609 6.57333 23.8409 7.32C24.3209 8.06667 24.5609 8.95333 24.5609 9.98C24.5609 11.0067 24.3209 11.8933 23.8409 12.64C23.3609 13.3733 22.6743 13.94 21.7809 14.34C20.9009 14.7267 19.8409 14.92 18.6009 14.92H14.2809L15.4409 13.74V19H12.8409ZM22.0009 19L18.4609 13.92H21.2409L24.8009 19H22.0009ZM15.4409 14.02L14.2809 12.78H18.4809C19.6276 12.78 20.4876 12.5333 21.0609 12.04C21.6476 11.5467 21.9409 10.86 21.9409 9.98C21.9409 9.08667 21.6476 8.4 21.0609 7.92C20.4876 7.44 19.6276 7.2 18.4809 7.2H14.2809L15.4409 5.92V14.02ZM24.9898 21L31.5898 2.16H33.8298L27.2298 21H24.9898ZM37.2717 11.44H44.2517V13.64H37.2717V11.44ZM37.4917 19H34.8917V5H45.1117V7.18H37.4917V19ZM45.0406 19L51.3406 5H53.9006L60.2206 19H57.5006L52.0806 6.38H53.1206L47.7206 19H45.0406ZM47.9406 15.76L48.6406 13.72H56.2006L56.9006 15.76H47.9406ZM62.0011 19V5H64.6011V16.8H71.9211V19H62.0011ZM73.9738 19V5H76.5738V16.8H83.8938V19H73.9738ZM96.4011 10.54L96.2411 5H98.4011L98.2211 10.54H96.4011ZM100.606 19V17.26L106.166 11.98C106.633 11.54 106.98 11.1533 107.206 10.82C107.433 10.4867 107.58 10.18 107.646 9.9C107.726 9.60667 107.766 9.33333 107.766 9.08C107.766 8.44 107.546 7.94667 107.106 7.6C106.666 7.24 106.02 7.06 105.166 7.06C104.486 7.06 103.866 7.18 103.306 7.42C102.76 7.66 102.286 8.02667 101.886 8.52L100.066 7.12C100.613 6.38667 101.346 5.82 102.266 5.42C103.2 5.00667 104.24 4.8 105.386 4.8C106.4 4.8 107.28 4.96667 108.026 5.3C108.786 5.62 109.366 6.08 109.766 6.68C110.18 7.28 110.386 7.99333 110.386 8.82C110.386 9.27333 110.326 9.72667 110.206 10.18C110.086 10.62 109.86 11.0867 109.526 11.58C109.193 12.0733 108.706 12.6267 108.066 13.24L103.286 17.78L102.746 16.8H110.926V19H100.606ZM116.827 19.2C115.84 19.2 114.874 19.06 113.927 18.78C112.994 18.4867 112.207 18.0867 111.567 17.58L112.687 15.56C113.194 15.9733 113.807 16.3067 114.527 16.56C115.247 16.8133 116 16.94 116.787 16.94C117.72 16.94 118.447 16.7533 118.967 16.38C119.487 15.9933 119.747 15.4733 119.747 14.82C119.747 14.18 119.507 13.6733 119.027 13.3C118.547 12.9267 117.774 12.74 116.707 12.74H115.427V10.96L119.427 6.2L119.767 7.18H112.247V5H121.787V6.74L117.787 11.5L116.427 10.7H117.207C118.927 10.7 120.214 11.0867 121.067 11.86C121.934 12.62 122.367 13.6 122.367 14.8C122.367 15.5867 122.167 16.3133 121.767 16.98C121.367 17.6467 120.754 18.1867 119.927 18.6C119.114 19 118.08 19.2 116.827 19.2Z" fill="black"/>
<path d="M373.22 19.2C372.127 19.2 371.08 19.0467 370.08 18.74C369.08 18.42 368.287 18.0133 367.7 17.52L368.6 15.5C369.16 15.94 369.853 16.3067 370.68 16.6C371.507 16.8933 372.353 17.04 373.22 17.04C373.953 17.04 374.547 16.96 375 16.8C375.453 16.64 375.787 16.4267 376 16.16C376.213 15.88 376.32 15.5667 376.32 15.22C376.32 14.7933 376.167 14.4533 375.86 14.2C375.553 13.9333 375.153 13.7267 374.66 13.58C374.18 13.42 373.64 13.2733 373.04 13.14C372.453 13.0067 371.86 12.8533 371.26 12.68C370.673 12.4933 370.133 12.26 369.64 11.98C369.16 11.6867 368.767 11.3 368.46 10.82C368.153 10.34 368 9.72667 368 8.98C368 8.22 368.2 7.52667 368.6 6.9C369.013 6.26 369.633 5.75333 370.46 5.38C371.3 4.99333 372.36 4.8 373.64 4.8C374.48 4.8 375.313 4.90667 376.14 5.12C376.967 5.33333 377.687 5.64 378.3 6.04L377.48 8.06C376.853 7.68667 376.207 7.41333 375.54 7.24C374.873 7.05333 374.233 6.96 373.62 6.96C372.9 6.96 372.313 7.04667 371.86 7.22C371.42 7.39333 371.093 7.62 370.88 7.9C370.68 8.18 370.58 8.5 370.58 8.86C370.58 9.28667 370.727 9.63333 371.02 9.9C371.327 10.1533 371.72 10.3533 372.2 10.5C372.693 10.6467 373.24 10.7933 373.84 10.94C374.44 11.0733 375.033 11.2267 375.62 11.4C376.22 11.5733 376.76 11.8 377.24 12.08C377.733 12.36 378.127 12.74 378.42 13.22C378.727 13.7 378.88 14.3067 378.88 15.04C378.88 15.7867 378.673 16.48 378.26 17.12C377.86 17.7467 377.24 18.2533 376.4 18.64C375.56 19.0133 374.5 19.2 373.22 19.2ZM387.478 19.2C385.558 19.2 384.051 18.66 382.958 17.58C381.878 16.5 381.338 14.94 381.338 12.9V5H383.938V12.8C383.938 14.24 384.245 15.2867 384.858 15.94C385.485 16.5933 386.365 16.92 387.498 16.92C388.631 16.92 389.505 16.5933 390.118 15.94C390.731 15.2867 391.038 14.24 391.038 12.8V5H393.598V12.9C393.598 14.94 393.051 16.5 391.958 17.58C390.878 18.66 389.385 19.2 387.478 19.2ZM397.239 19V5H399.379L405.499 15.22H404.379L410.399 5H412.539L412.559 19H410.099L410.079 8.86H410.599L405.479 17.4H404.319L399.119 8.86H399.719V19H397.239ZM416.341 19V5H418.481L424.601 15.22H423.481L429.501 5H431.641L431.661 19H429.201L429.181 8.86H429.701L424.581 17.4H423.421L418.221 8.86H418.821V19H416.341ZM437.843 10.82H444.803V12.96H437.843V10.82ZM438.043 16.82H445.943V19H435.443V5H445.663V7.18H438.043V16.82ZM448.841 19V5H454.601C455.841 5 456.901 5.2 457.781 5.6C458.674 6 459.361 6.57333 459.841 7.32C460.321 8.06667 460.561 8.95333 460.561 9.98C460.561 11.0067 460.321 11.8933 459.841 12.64C459.361 13.3733 458.674 13.94 457.781 14.34C456.901 14.7267 455.841 14.92 454.601 14.92H450.281L451.441 13.74V19H448.841ZM458.001 19L454.461 13.92H457.241L460.801 19H458.001ZM451.441 14.02L450.281 12.78H454.481C455.628 12.78 456.488 12.5333 457.061 12.04C457.648 11.5467 457.941 10.86 457.941 9.98C457.941 9.08667 457.648 8.4 457.061 7.92C456.488 7.44 455.628 7.2 454.481 7.2H450.281L451.441 5.92V14.02ZM460.99 21L467.59 2.16H469.83L463.23 21H460.99ZM473.272 11.44H480.252V13.64H473.272V11.44ZM473.492 19H470.892V5H481.112V7.18H473.492V19ZM481.041 19L487.341 5H489.901L496.221 19H493.501L488.081 6.38H489.121L483.721 19H481.041ZM483.941 15.76L484.641 13.72H492.201L492.901 15.76H483.941ZM498.001 19V5H500.601V16.8H507.921V19H498.001ZM509.974 19V5H512.574V16.8H519.894V19H509.974ZM532.401 10.54L532.241 5H534.401L534.221 10.54H532.401ZM536.606 19V17.26L542.166 11.98C542.633 11.54 542.98 11.1533 543.206 10.82C543.433 10.4867 543.58 10.18 543.646 9.9C543.726 9.60667 543.766 9.33333 543.766 9.08C543.766 8.44 543.546 7.94667 543.106 7.6C542.666 7.24 542.02 7.06 541.166 7.06C540.486 7.06 539.866 7.18 539.306 7.42C538.76 7.66 538.286 8.02667 537.886 8.52L536.066 7.12C536.613 6.38667 537.346 5.82 538.266 5.42C539.2 5.00667 540.24 4.8 541.386 4.8C542.4 4.8 543.28 4.96667 544.026 5.3C544.786 5.62 545.366 6.08 545.766 6.68C546.18 7.28 546.386 7.99333 546.386 8.82C546.386 9.27333 546.326 9.72667 546.206 10.18C546.086 10.62 545.86 11.0867 545.526 11.58C545.193 12.0733 544.706 12.6267 544.066 13.24L539.286 17.78L538.746 16.8H546.926V19H536.606ZM552.827 19.2C551.84 19.2 550.874 19.06 549.927 18.78C548.994 18.4867 548.207 18.0867 547.567 17.58L548.687 15.56C549.194 15.9733 549.807 16.3067 550.527 16.56C551.247 16.8133 552 16.94 552.787 16.94C553.72 16.94 554.447 16.7533 554.967 16.38C555.487 15.9933 555.747 15.4733 555.747 14.82C555.747 14.18 555.507 13.6733 555.027 13.3C554.547 12.9267 553.774 12.74 552.707 12.74H551.427V10.96L555.427 6.2L555.767 7.18H548.247V5H557.787V6.74L553.787 11.5L552.427 10.7H553.207C554.927 10.7 556.214 11.0867 557.067 11.86C557.934 12.62 558.367 13.6 558.367 14.8C558.367 15.5867 558.167 16.3133 557.767 16.98C557.367 17.6467 556.754 18.1867 555.927 18.6C555.114 19 554.08 19.2 552.827 19.2Z" fill="black"/>
<path d="M809.22 19.2C808.127 19.2 807.08 19.0467 806.08 18.74C805.08 18.42 804.287 18.0133 803.7 17.52L804.6 15.5C805.16 15.94 805.853 16.3067 806.68 16.6C807.507 16.8933 808.353 17.04 809.22 17.04C809.953 17.04 810.547 16.96 811 16.8C811.453 16.64 811.787 16.4267 812 16.16C812.213 15.88 812.32 15.5667 812.32 15.22C812.32 14.7933 812.167 14.4533 811.86 14.2C811.553 13.9333 811.153 13.7267 810.66 13.58C810.18 13.42 809.64 13.2733 809.04 13.14C808.453 13.0067 807.86 12.8533 807.26 12.68C806.673 12.4933 806.133 12.26 805.64 11.98C805.16 11.6867 804.767 11.3 804.46 10.82C804.153 10.34 804 9.72667 804 8.98C804 8.22 804.2 7.52667 804.6 6.9C805.013 6.26 805.633 5.75333 806.46 5.38C807.3 4.99333 808.36 4.8 809.64 4.8C810.48 4.8 811.313 4.90667 812.14 5.12C812.967 5.33333 813.687 5.64 814.3 6.04L813.48 8.06C812.853 7.68667 812.207 7.41333 811.54 7.24C810.873 7.05333 810.233 6.96 809.62 6.96C808.9 6.96 808.313 7.04667 807.86 7.22C807.42 7.39333 807.093 7.62 806.88 7.9C806.68 8.18 806.58 8.5 806.58 8.86C806.58 9.28667 806.727 9.63333 807.02 9.9C807.327 10.1533 807.72 10.3533 808.2 10.5C808.693 10.6467 809.24 10.7933 809.84 10.94C810.44 11.0733 811.033 11.2267 811.62 11.4C812.22 11.5733 812.76 11.8 813.24 12.08C813.733 12.36 814.127 12.74 814.42 13.22C814.727 13.7 814.88 14.3067 814.88 15.04C814.88 15.7867 814.673 16.48 814.26 17.12C813.86 17.7467 813.24 18.2533 812.4 18.64C811.56 19.0133 810.5 19.2 809.22 19.2ZM823.478 19.2C821.558 19.2 820.051 18.66 818.958 17.58C817.878 16.5 817.338 14.94 817.338 12.9V5H819.938V12.8C819.938 14.24 820.245 15.2867 820.858 15.94C821.485 16.5933 822.365 16.92 823.498 16.92C824.631 16.92 825.505 16.5933 826.118 15.94C826.731 15.2867 827.038 14.24 827.038 12.8V5H829.598V12.9C829.598 14.94 829.051 16.5 827.958 17.58C826.878 18.66 825.385 19.2 823.478 19.2ZM833.239 19V5H835.379L841.499 15.22H840.379L846.399 5H848.539L848.559 19H846.099L846.079 8.86H846.599L841.479 17.4H840.319L835.119 8.86H835.719V19H833.239ZM852.341 19V5H854.481L860.601 15.22H859.481L865.501 5H867.641L867.661 19H865.201L865.181 8.86H865.701L860.581 17.4H859.421L854.221 8.86H854.821V19H852.341ZM873.843 10.82H880.803V12.96H873.843V10.82ZM874.043 16.82H881.943V19H871.443V5H881.663V7.18H874.043V16.82ZM884.841 19V5H890.601C891.841 5 892.901 5.2 893.781 5.6C894.674 6 895.361 6.57333 895.841 7.32C896.321 8.06667 896.561 8.95333 896.561 9.98C896.561 11.0067 896.321 11.8933 895.841 12.64C895.361 13.3733 894.674 13.94 893.781 14.34C892.901 14.7267 891.841 14.92 890.601 14.92H886.281L887.441 13.74V19H884.841ZM894.001 19L890.461 13.92H893.241L896.801 19H894.001ZM887.441 14.02L886.281 12.78H890.481C891.628 12.78 892.488 12.5333 893.061 12.04C893.648 11.5467 893.941 10.86 893.941 9.98C893.941 9.08667 893.648 8.4 893.061 7.92C892.488 7.44 891.628 7.2 890.481 7.2H886.281L887.441 5.92V14.02ZM896.99 21L903.59 2.16H905.83L899.23 21H896.99ZM909.272 11.44H916.252V13.64H909.272V11.44ZM909.492 19H906.892V5H917.112V7.18H909.492V19ZM917.041 19L923.341 5H925.901L932.221 19H929.501L924.081 6.38H925.121L919.721 19H917.041ZM919.941 15.76L920.641 13.72H928.201L928.901 15.76H919.941ZM934.001 19V5H936.601V16.8H943.921V19H934.001ZM945.974 19V5H948.574V16.8H955.894V19H945.974ZM968.401 10.54L968.241 5H970.401L970.221 10.54H968.401ZM972.606 19V17.26L978.166 11.98C978.633 11.54 978.98 11.1533 979.206 10.82C979.433 10.4867 979.58 10.18 979.646 9.9C979.726 9.60667 979.766 9.33333 979.766 9.08C979.766 8.44 979.546 7.94667 979.106 7.6C978.666 7.24 978.02 7.06 977.166 7.06C976.486 7.06 975.866 7.18 975.306 7.42C974.76 7.66 974.286 8.02667 973.886 8.52L972.066 7.12C972.613 6.38667 973.346 5.82 974.266 5.42C975.2 5.00667 976.24 4.8 977.386 4.8C978.4 4.8 979.28 4.96667 980.026 5.3C980.786 5.62 981.366 6.08 981.766 6.68C982.18 7.28 982.386 7.99333 982.386 8.82C982.386 9.27333 982.326 9.72667 982.206 10.18C982.086 10.62 981.86 11.0867 981.526 11.58C981.193 12.0733 980.706 12.6267 980.066 13.24L975.286 17.78L974.746 16.8H982.926V19H972.606ZM988.827 19.2C987.84 19.2 986.874 19.06 985.927 18.78C984.994 18.4867 984.207 18.0867 983.567 17.58L984.687 15.56C985.194 15.9733 985.807 16.3067 986.527 16.56C987.247 16.8133 988 16.94 988.787 16.94C989.72 16.94 990.447 16.7533 990.967 16.38C991.487 15.9933 991.747 15.4733 991.747 14.82C991.747 14.18 991.507 13.6733 991.027 13.3C990.547 12.9267 989.774 12.74 988.707 12.74H987.427V10.96L991.427 6.2L991.767 7.18H984.247V5H993.787V6.74L989.787 11.5L988.427 10.7H989.207C990.927 10.7 992.214 11.0867 993.067 11.86C993.934 12.62 994.367 13.6 994.367 14.8C994.367 15.5867 994.167 16.3133 993.767 16.98C993.367 17.6467 992.754 18.1867 991.927 18.6C991.114 19 990.08 19.2 988.827 19.2Z" fill="black"/>
<path d="M155.22 19.2C154.127 19.2 153.08 19.0467 152.08 18.74C151.08 18.42 150.287 18.0133 149.7 17.52L150.6 15.5C151.16 15.94 151.853 16.3067 152.68 16.6C153.507 16.8933 154.353 17.04 155.22 17.04C155.953 17.04 156.547 16.96 157 16.8C157.453 16.64 157.787 16.4267 158 16.16C158.213 15.88 158.32 15.5667 158.32 15.22C158.32 14.7933 158.167 14.4533 157.86 14.2C157.553 13.9333 157.153 13.7267 156.66 13.58C156.18 13.42 155.64 13.2733 155.04 13.14C154.453 13.0067 153.86 12.8533 153.26 12.68C152.673 12.4933 152.133 12.26 151.64 11.98C151.16 11.6867 150.767 11.3 150.46 10.82C150.153 10.34 150 9.72667 150 8.98C150 8.22 150.2 7.52667 150.6 6.9C151.013 6.26 151.633 5.75333 152.46 5.38C153.3 4.99333 154.36 4.8 155.64 4.8C156.48 4.8 157.313 4.90667 158.14 5.12C158.967 5.33333 159.687 5.64 160.3 6.04L159.48 8.06C158.853 7.68667 158.207 7.41333 157.54 7.24C156.873 7.05333 156.233 6.96 155.62 6.96C154.9 6.96 154.313 7.04667 153.86 7.22C153.42 7.39333 153.093 7.62 152.88 7.9C152.68 8.18 152.58 8.5 152.58 8.86C152.58 9.28667 152.727 9.63333 153.02 9.9C153.327 10.1533 153.72 10.3533 154.2 10.5C154.693 10.6467 155.24 10.7933 155.84 10.94C156.44 11.0733 157.033 11.2267 157.62 11.4C158.22 11.5733 158.76 11.8 159.24 12.08C159.733 12.36 160.127 12.74 160.42 13.22C160.727 13.7 160.88 14.3067 160.88 15.04C160.88 15.7867 160.673 16.48 160.26 17.12C159.86 17.7467 159.24 18.2533 158.4 18.64C157.56 19.0133 156.5 19.2 155.22 19.2ZM169.478 19.2C167.558 19.2 166.051 18.66 164.958 17.58C163.878 16.5 163.338 14.94 163.338 12.9V5H165.938V12.8C165.938 14.24 166.245 15.2867 166.858 15.94C167.485 16.5933 168.365 16.92 169.498 16.92C170.631 16.92 171.505 16.5933 172.118 15.94C172.731 15.2867 173.038 14.24 173.038 12.8V5H175.598V12.9C175.598 14.94 175.051 16.5 173.958 17.58C172.878 18.66 171.385 19.2 169.478 19.2ZM179.239 19V5H181.379L187.499 15.22H186.379L192.399 5H194.539L194.559 19H192.099L192.079 8.86H192.599L187.479 17.4H186.319L181.119 8.86H181.719V19H179.239ZM198.341 19V5H200.481L206.601 15.22H205.481L211.501 5H213.641L213.661 19H211.201L211.181 8.86H211.701L206.581 17.4H205.421L200.221 8.86H200.821V19H198.341ZM219.843 10.82H226.803V12.96H219.843V10.82ZM220.043 16.82H227.943V19H217.443V5H227.663V7.18H220.043V16.82ZM230.841 19V5H236.601C237.841 5 238.901 5.2 239.781 5.6C240.674 6 241.361 6.57333 241.841 7.32C242.321 8.06667 242.561 8.95333 242.561 9.98C242.561 11.0067 242.321 11.8933 241.841 12.64C241.361 13.3733 240.674 13.94 239.781 14.34C238.901 14.7267 237.841 14.92 236.601 14.92H232.281L233.441 13.74V19H230.841ZM240.001 19L236.461 13.92H239.241L242.801 19H240.001ZM233.441 14.02L232.281 12.78H236.481C237.628 12.78 238.488 12.5333 239.061 12.04C239.648 11.5467 239.941 10.86 239.941 9.98C239.941 9.08667 239.648 8.4 239.061 7.92C238.488 7.44 237.628 7.2 236.481 7.2H232.281L233.441 5.92V14.02ZM242.99 21L249.59 2.16H251.83L245.23 21H242.99ZM255.272 11.44H262.252V13.64H255.272V11.44ZM255.492 19H252.892V5H263.112V7.18H255.492V19ZM263.041 19L269.341 5H271.901L278.221 19H275.501L270.081 6.38H271.121L265.721 19H263.041ZM265.941 15.76L266.641 13.72H274.201L274.901 15.76H265.941ZM280.001 19V5H282.601V16.8H289.921V19H280.001ZM291.974 19V5H294.574V16.8H301.894V19H291.974ZM314.401 10.54L314.241 5H316.401L316.221 10.54H314.401ZM318.606 19V17.26L324.166 11.98C324.633 11.54 324.98 11.1533 325.206 10.82C325.433 10.4867 325.58 10.18 325.646 9.9C325.726 9.60667 325.766 9.33333 325.766 9.08C325.766 8.44 325.546 7.94667 325.106 7.6C324.666 7.24 324.02 7.06 323.166 7.06C322.486 7.06 321.866 7.18 321.306 7.42C320.76 7.66 320.286 8.02667 319.886 8.52L318.066 7.12C318.613 6.38667 319.346 5.82 320.266 5.42C321.2 5.00667 322.24 4.8 323.386 4.8C324.4 4.8 325.28 4.96667 326.026 5.3C326.786 5.62 327.366 6.08 327.766 6.68C328.18 7.28 328.386 7.99333 328.386 8.82C328.386 9.27333 328.326 9.72667 328.206 10.18C328.086 10.62 327.86 11.0867 327.526 11.58C327.193 12.0733 326.706 12.6267 326.066 13.24L321.286 17.78L320.746 16.8H328.926V19H318.606ZM334.827 19.2C333.84 19.2 332.874 19.06 331.927 18.78C330.994 18.4867 330.207 18.0867 329.567 17.58L330.687 15.56C331.194 15.9733 331.807 16.3067 332.527 16.56C333.247 16.8133 334 16.94 334.787 16.94C335.72 16.94 336.447 16.7533 336.967 16.38C337.487 15.9933 337.747 15.4733 337.747 14.82C337.747 14.18 337.507 13.6733 337.027 13.3C336.547 12.9267 335.774 12.74 334.707 12.74H333.427V10.96L337.427 6.2L337.767 7.18H330.247V5H339.787V6.74L335.787 11.5L334.427 10.7H335.207C336.927 10.7 338.214 11.0867 339.067 11.86C339.934 12.62 340.367 13.6 340.367 14.8C340.367 15.5867 340.167 16.3133 339.767 16.98C339.367 17.6467 338.754 18.1867 337.927 18.6C337.114 19 336.08 19.2 334.827 19.2Z" fill="black"/>
<path d="M591.22 19.2C590.127 19.2 589.08 19.0467 588.08 18.74C587.08 18.42 586.287 18.0133 585.7 17.52L586.6 15.5C587.16 15.94 587.853 16.3067 588.68 16.6C589.507 16.8933 590.353 17.04 591.22 17.04C591.953 17.04 592.547 16.96 593 16.8C593.453 16.64 593.787 16.4267 594 16.16C594.213 15.88 594.32 15.5667 594.32 15.22C594.32 14.7933 594.167 14.4533 593.86 14.2C593.553 13.9333 593.153 13.7267 592.66 13.58C592.18 13.42 591.64 13.2733 591.04 13.14C590.453 13.0067 589.86 12.8533 589.26 12.68C588.673 12.4933 588.133 12.26 587.64 11.98C587.16 11.6867 586.767 11.3 586.46 10.82C586.153 10.34 586 9.72667 586 8.98C586 8.22 586.2 7.52667 586.6 6.9C587.013 6.26 587.633 5.75333 588.46 5.38C589.3 4.99333 590.36 4.8 591.64 4.8C592.48 4.8 593.313 4.90667 594.14 5.12C594.967 5.33333 595.687 5.64 596.3 6.04L595.48 8.06C594.853 7.68667 594.207 7.41333 593.54 7.24C592.873 7.05333 592.233 6.96 591.62 6.96C590.9 6.96 590.313 7.04667 589.86 7.22C589.42 7.39333 589.093 7.62 588.88 7.9C588.68 8.18 588.58 8.5 588.58 8.86C588.58 9.28667 588.727 9.63333 589.02 9.9C589.327 10.1533 589.72 10.3533 590.2 10.5C590.693 10.6467 591.24 10.7933 591.84 10.94C592.44 11.0733 593.033 11.2267 593.62 11.4C594.22 11.5733 594.76 11.8 595.24 12.08C595.733 12.36 596.127 12.74 596.42 13.22C596.727 13.7 596.88 14.3067 596.88 15.04C596.88 15.7867 596.673 16.48 596.26 17.12C595.86 17.7467 595.24 18.2533 594.4 18.64C593.56 19.0133 592.5 19.2 591.22 19.2ZM605.478 19.2C603.558 19.2 602.051 18.66 600.958 17.58C599.878 16.5 599.338 14.94 599.338 12.9V5H601.938V12.8C601.938 14.24 602.245 15.2867 602.858 15.94C603.485 16.5933 604.365 16.92 605.498 16.92C606.631 16.92 607.505 16.5933 608.118 15.94C608.731 15.2867 609.038 14.24 609.038 12.8V5H611.598V12.9C611.598 14.94 611.051 16.5 609.958 17.58C608.878 18.66 607.385 19.2 605.478 19.2ZM615.239 19V5H617.379L623.499 15.22H622.379L628.399 5H630.539L630.559 19H628.099L628.079 8.86H628.599L623.479 17.4H622.319L617.119 8.86H617.719V19H615.239ZM634.341 19V5H636.481L642.601 15.22H641.481L647.501 5H649.641L649.661 19H647.201L647.181 8.86H647.701L642.581 17.4H641.421L636.221 8.86H636.821V19H634.341ZM655.843 10.82H662.803V12.96H655.843V10.82ZM656.043 16.82H663.943V19H653.443V5H663.663V7.18H656.043V16.82ZM666.841 19V5H672.601C673.841 5 674.901 5.2 675.781 5.6C676.674 6 677.361 6.57333 677.841 7.32C678.321 8.06667 678.561 8.95333 678.561 9.98C678.561 11.0067 678.321 11.8933 677.841 12.64C677.361 13.3733 676.674 13.94 675.781 14.34C674.901 14.7267 673.841 14.92 672.601 14.92H668.281L669.441 13.74V19H666.841ZM676.001 19L672.461 13.92H675.241L678.801 19H676.001ZM669.441 14.02L668.281 12.78H672.481C673.628 12.78 674.488 12.5333 675.061 12.04C675.648 11.5467 675.941 10.86 675.941 9.98C675.941 9.08667 675.648 8.4 675.061 7.92C674.488 7.44 673.628 7.2 672.481 7.2H668.281L669.441 5.92V14.02ZM678.99 21L685.59 2.16H687.83L681.23 21H678.99ZM691.272 11.44H698.252V13.64H691.272V11.44ZM691.492 19H688.892V5H699.112V7.18H691.492V19ZM699.041 19L705.341 5H707.901L714.221 19H711.501L706.081 6.38H707.121L701.721 19H699.041ZM701.941 15.76L702.641 13.72H710.201L710.901 15.76H701.941ZM716.001 19V5H718.601V16.8H725.921V19H716.001ZM727.974 19V5H730.574V16.8H737.894V19H727.974ZM750.401 10.54L750.241 5H752.401L752.221 10.54H750.401ZM754.606 19V17.26L760.166 11.98C760.633 11.54 760.98 11.1533 761.206 10.82C761.433 10.4867 761.58 10.18 761.646 9.9C761.726 9.60667 761.766 9.33333 761.766 9.08C761.766 8.44 761.546 7.94667 761.106 7.6C760.666 7.24 760.02 7.06 759.166 7.06C758.486 7.06 757.866 7.18 757.306 7.42C756.76 7.66 756.286 8.02667 755.886 8.52L754.066 7.12C754.613 6.38667 755.346 5.82 756.266 5.42C757.2 5.00667 758.24 4.8 759.386 4.8C760.4 4.8 761.28 4.96667 762.026 5.3C762.786 5.62 763.366 6.08 763.766 6.68C764.18 7.28 764.386 7.99333 764.386 8.82C764.386 9.27333 764.326 9.72667 764.206 10.18C764.086 10.62 763.86 11.0867 763.526 11.58C763.193 12.0733 762.706 12.6267 762.066 13.24L757.286 17.78L756.746 16.8H764.926V19H754.606ZM770.827 19.2C769.84 19.2 768.874 19.06 767.927 18.78C766.994 18.4867 766.207 18.0867 765.567 17.58L766.687 15.56C767.194 15.9733 767.807 16.3067 768.527 16.56C769.247 16.8133 770 16.94 770.787 16.94C771.72 16.94 772.447 16.7533 772.967 16.38C773.487 15.9933 773.747 15.4733 773.747 14.82C773.747 14.18 773.507 13.6733 773.027 13.3C772.547 12.9267 771.774 12.74 770.707 12.74H769.427V10.96L773.427 6.2L773.767 7.18H766.247V5H775.787V6.74L771.787 11.5L770.427 10.7H771.207C772.927 10.7 774.214 11.0867 775.067 11.86C775.934 12.62 776.367 13.6 776.367 14.8C776.367 15.5867 776.167 16.3133 775.767 16.98C775.367 17.6467 774.754 18.1867 773.927 18.6C773.114 19 772.08 19.2 770.827 19.2Z" fill="black"/>
<path d="M1027.22 19.2C1026.13 19.2 1025.08 19.0467 1024.08 18.74C1023.08 18.42 1022.29 18.0133 1021.7 17.52L1022.6 15.5C1023.16 15.94 1023.85 16.3067 1024.68 16.6C1025.51 16.8933 1026.35 17.04 1027.22 17.04C1027.95 17.04 1028.55 16.96 1029 16.8C1029.45 16.64 1029.79 16.4267 1030 16.16C1030.21 15.88 1030.32 15.5667 1030.32 15.22C1030.32 14.7933 1030.17 14.4533 1029.86 14.2C1029.55 13.9333 1029.15 13.7267 1028.66 13.58C1028.18 13.42 1027.64 13.2733 1027.04 13.14C1026.45 13.0067 1025.86 12.8533 1025.26 12.68C1024.67 12.4933 1024.13 12.26 1023.64 11.98C1023.16 11.6867 1022.77 11.3 1022.46 10.82C1022.15 10.34 1022 9.72667 1022 8.98C1022 8.22 1022.2 7.52667 1022.6 6.9C1023.01 6.26 1023.63 5.75333 1024.46 5.38C1025.3 4.99333 1026.36 4.8 1027.64 4.8C1028.48 4.8 1029.31 4.90667 1030.14 5.12C1030.97 5.33333 1031.69 5.64 1032.3 6.04L1031.48 8.06C1030.85 7.68667 1030.21 7.41333 1029.54 7.24C1028.87 7.05333 1028.23 6.96 1027.62 6.96C1026.9 6.96 1026.31 7.04667 1025.86 7.22C1025.42 7.39333 1025.09 7.62 1024.88 7.9C1024.68 8.18 1024.58 8.5 1024.58 8.86C1024.58 9.28667 1024.73 9.63333 1025.02 9.9C1025.33 10.1533 1025.72 10.3533 1026.2 10.5C1026.69 10.6467 1027.24 10.7933 1027.84 10.94C1028.44 11.0733 1029.03 11.2267 1029.62 11.4C1030.22 11.5733 1030.76 11.8 1031.24 12.08C1031.73 12.36 1032.13 12.74 1032.42 13.22C1032.73 13.7 1032.88 14.3067 1032.88 15.04C1032.88 15.7867 1032.67 16.48 1032.26 17.12C1031.86 17.7467 1031.24 18.2533 1030.4 18.64C1029.56 19.0133 1028.5 19.2 1027.22 19.2ZM1041.48 19.2C1039.56 19.2 1038.05 18.66 1036.96 17.58C1035.88 16.5 1035.34 14.94 1035.34 12.9V5H1037.94V12.8C1037.94 14.24 1038.24 15.2867 1038.86 15.94C1039.48 16.5933 1040.36 16.92 1041.5 16.92C1042.63 16.92 1043.5 16.5933 1044.12 15.94C1044.73 15.2867 1045.04 14.24 1045.04 12.8V5H1047.6V12.9C1047.6 14.94 1047.05 16.5 1045.96 17.58C1044.88 18.66 1043.38 19.2 1041.48 19.2ZM1051.24 19V5H1053.38L1059.5 15.22H1058.38L1064.4 5H1066.54L1066.56 19H1064.1L1064.08 8.86H1064.6L1059.48 17.4H1058.32L1053.12 8.86H1053.72V19H1051.24ZM1070.34 19V5H1072.48L1078.6 15.22H1077.48L1083.5 5H1085.64L1085.66 19H1083.2L1083.18 8.86H1083.7L1078.58 17.4H1077.42L1072.22 8.86H1072.82V19H1070.34ZM1091.84 10.82H1098.8V12.96H1091.84V10.82ZM1092.04 16.82H1099.94V19H1089.44V5H1099.66V7.18H1092.04V16.82ZM1102.84 19V5H1108.6C1109.84 5 1110.9 5.2 1111.78 5.6C1112.67 6 1113.36 6.57333 1113.84 7.32C1114.32 8.06667 1114.56 8.95333 1114.56 9.98C1114.56 11.0067 1114.32 11.8933 1113.84 12.64C1113.36 13.3733 1112.67 13.94 1111.78 14.34C1110.9 14.7267 1109.84 14.92 1108.6 14.92H1104.28L1105.44 13.74V19H1102.84ZM1112 19L1108.46 13.92H1111.24L1114.8 19H1112ZM1105.44 14.02L1104.28 12.78H1108.48C1109.63 12.78 1110.49 12.5333 1111.06 12.04C1111.65 11.5467 1111.94 10.86 1111.94 9.98C1111.94 9.08667 1111.65 8.4 1111.06 7.92C1110.49 7.44 1109.63 7.2 1108.48 7.2H1104.28L1105.44 5.92V14.02ZM1114.99 21L1121.59 2.16H1123.83L1117.23 21H1114.99ZM1127.27 11.44H1134.25V13.64H1127.27V11.44ZM1127.49 19H1124.89V5H1135.11V7.18H1127.49V19ZM1135.04 19L1141.34 5H1143.9L1150.22 19H1147.5L1142.08 6.38H1143.12L1137.72 19H1135.04ZM1137.94 15.76L1138.64 13.72H1146.2L1146.9 15.76H1137.94ZM1152 19V5H1154.6V16.8H1161.92V19H1152ZM1163.97 19V5H1166.57V16.8H1173.89V19H1163.97ZM1186.4 10.54L1186.24 5H1188.4L1188.22 10.54H1186.4ZM1190.61 19V17.26L1196.17 11.98C1196.63 11.54 1196.98 11.1533 1197.21 10.82C1197.43 10.4867 1197.58 10.18 1197.65 9.9C1197.73 9.60667 1197.77 9.33333 1197.77 9.08C1197.77 8.44 1197.55 7.94667 1197.11 7.6C1196.67 7.24 1196.02 7.06 1195.17 7.06C1194.49 7.06 1193.87 7.18 1193.31 7.42C1192.76 7.66 1192.29 8.02667 1191.89 8.52L1190.07 7.12C1190.61 6.38667 1191.35 5.82 1192.27 5.42C1193.2 5.00667 1194.24 4.8 1195.39 4.8C1196.4 4.8 1197.28 4.96667 1198.03 5.3C1198.79 5.62 1199.37 6.08 1199.77 6.68C1200.18 7.28 1200.39 7.99333 1200.39 8.82C1200.39 9.27333 1200.33 9.72667 1200.21 10.18C1200.09 10.62 1199.86 11.0867 1199.53 11.58C1199.19 12.0733 1198.71 12.6267 1198.07 13.24L1193.29 17.78L1192.75 16.8H1200.93V19H1190.61ZM1206.83 19.2C1205.84 19.2 1204.87 19.06 1203.93 18.78C1202.99 18.4867 1202.21 18.0867 1201.57 17.58L1202.69 15.56C1203.19 15.9733 1203.81 16.3067 1204.53 16.56C1205.25 16.8133 1206 16.94 1206.79 16.94C1207.72 16.94 1208.45 16.7533 1208.97 16.38C1209.49 15.9933 1209.75 15.4733 1209.75 14.82C1209.75 14.18 1209.51 13.6733 1209.03 13.3C1208.55 12.9267 1207.77 12.74 1206.71 12.74H1205.43V10.96L1209.43 6.2L1209.77 7.18H1202.25V5H1211.79V6.74L1207.79 11.5L1206.43 10.7H1207.21C1208.93 10.7 1210.21 11.0867 1211.07 11.86C1211.93 12.62 1212.37 13.6 1212.37 14.8C1212.37 15.5867 1212.17 16.3133 1211.77 16.98C1211.37 17.6467 1210.75 18.1867 1209.93 18.6C1209.11 19 1208.08 19.2 1206.83 19.2Z" fill="black"/>
<path d="M1245.22 19.2C1244.13 19.2 1243.08 19.0467 1242.08 18.74C1241.08 18.42 1240.29 18.0133 1239.7 17.52L1240.6 15.5C1241.16 15.94 1241.85 16.3067 1242.68 16.6C1243.51 16.8933 1244.35 17.04 1245.22 17.04C1245.95 17.04 1246.55 16.96 1247 16.8C1247.45 16.64 1247.79 16.4267 1248 16.16C1248.21 15.88 1248.32 15.5667 1248.32 15.22C1248.32 14.7933 1248.17 14.4533 1247.86 14.2C1247.55 13.9333 1247.15 13.7267 1246.66 13.58C1246.18 13.42 1245.64 13.2733 1245.04 13.14C1244.45 13.0067 1243.86 12.8533 1243.26 12.68C1242.67 12.4933 1242.13 12.26 1241.64 11.98C1241.16 11.6867 1240.77 11.3 1240.46 10.82C1240.15 10.34 1240 9.72667 1240 8.98C1240 8.22 1240.2 7.52667 1240.6 6.9C1241.01 6.26 1241.63 5.75333 1242.46 5.38C1243.3 4.99333 1244.36 4.8 1245.64 4.8C1246.48 4.8 1247.31 4.90667 1248.14 5.12C1248.97 5.33333 1249.69 5.64 1250.3 6.04L1249.48 8.06C1248.85 7.68667 1248.21 7.41333 1247.54 7.24C1246.87 7.05333 1246.23 6.96 1245.62 6.96C1244.9 6.96 1244.31 7.04667 1243.86 7.22C1243.42 7.39333 1243.09 7.62 1242.88 7.9C1242.68 8.18 1242.58 8.5 1242.58 8.86C1242.58 9.28667 1242.73 9.63333 1243.02 9.9C1243.33 10.1533 1243.72 10.3533 1244.2 10.5C1244.69 10.6467 1245.24 10.7933 1245.84 10.94C1246.44 11.0733 1247.03 11.2267 1247.62 11.4C1248.22 11.5733 1248.76 11.8 1249.24 12.08C1249.73 12.36 1250.13 12.74 1250.42 13.22C1250.73 13.7 1250.88 14.3067 1250.88 15.04C1250.88 15.7867 1250.67 16.48 1250.26 17.12C1249.86 17.7467 1249.24 18.2533 1248.4 18.64C1247.56 19.0133 1246.5 19.2 1245.22 19.2ZM1259.48 19.2C1257.56 19.2 1256.05 18.66 1254.96 17.58C1253.88 16.5 1253.34 14.94 1253.34 12.9V5H1255.94V12.8C1255.94 14.24 1256.24 15.2867 1256.86 15.94C1257.48 16.5933 1258.36 16.92 1259.5 16.92C1260.63 16.92 1261.5 16.5933 1262.12 15.94C1262.73 15.2867 1263.04 14.24 1263.04 12.8V5H1265.6V12.9C1265.6 14.94 1265.05 16.5 1263.96 17.58C1262.88 18.66 1261.38 19.2 1259.48 19.2ZM1269.24 19V5H1271.38L1277.5 15.22H1276.38L1282.4 5H1284.54L1284.56 19H1282.1L1282.08 8.86H1282.6L1277.48 17.4H1276.32L1271.12 8.86H1271.72V19H1269.24ZM1288.34 19V5H1290.48L1296.6 15.22H1295.48L1301.5 5H1303.64L1303.66 19H1301.2L1301.18 8.86H1301.7L1296.58 17.4H1295.42L1290.22 8.86H1290.82V19H1288.34ZM1309.84 10.82H1316.8V12.96H1309.84V10.82ZM1310.04 16.82H1317.94V19H1307.44V5H1317.66V7.18H1310.04V16.82ZM1320.84 19V5H1326.6C1327.84 5 1328.9 5.2 1329.78 5.6C1330.67 6 1331.36 6.57333 1331.84 7.32C1332.32 8.06667 1332.56 8.95333 1332.56 9.98C1332.56 11.0067 1332.32 11.8933 1331.84 12.64C1331.36 13.3733 1330.67 13.94 1329.78 14.34C1328.9 14.7267 1327.84 14.92 1326.6 14.92H1322.28L1323.44 13.74V19H1320.84ZM1330 19L1326.46 13.92H1329.24L1332.8 19H1330ZM1323.44 14.02L1322.28 12.78H1326.48C1327.63 12.78 1328.49 12.5333 1329.06 12.04C1329.65 11.5467 1329.94 10.86 1329.94 9.98C1329.94 9.08667 1329.65 8.4 1329.06 7.92C1328.49 7.44 1327.63 7.2 1326.48 7.2H1322.28L1323.44 5.92V14.02ZM1332.99 21L1339.59 2.16H1341.83L1335.23 21H1332.99ZM1345.27 11.44H1352.25V13.64H1345.27V11.44ZM1345.49 19H1342.89V5H1353.11V7.18H1345.49V19ZM1353.04 19L1359.34 5H1361.9L1368.22 19H1365.5L1360.08 6.38H1361.12L1355.72 19H1353.04ZM1355.94 15.76L1356.64 13.72H1364.2L1364.9 15.76H1355.94ZM1370 19V5H1372.6V16.8H1379.92V19H1370ZM1381.97 19V5H1384.57V16.8H1391.89V19H1381.97ZM1404.4 10.54L1404.24 5H1406.4L1406.22 10.54H1404.4ZM1408.61 19V17.26L1414.17 11.98C1414.63 11.54 1414.98 11.1533 1415.21 10.82C1415.43 10.4867 1415.58 10.18 1415.65 9.9C1415.73 9.60667 1415.77 9.33333 1415.77 9.08C1415.77 8.44 1415.55 7.94667 1415.11 7.6C1414.67 7.24 1414.02 7.06 1413.17 7.06C1412.49 7.06 1411.87 7.18 1411.31 7.42C1410.76 7.66 1410.29 8.02667 1409.89 8.52L1408.07 7.12C1408.61 6.38667 1409.35 5.82 1410.27 5.42C1411.2 5.00667 1412.24 4.8 1413.39 4.8C1414.4 4.8 1415.28 4.96667 1416.03 5.3C1416.79 5.62 1417.37 6.08 1417.77 6.68C1418.18 7.28 1418.39 7.99333 1418.39 8.82C1418.39 9.27333 1418.33 9.72667 1418.21 10.18C1418.09 10.62 1417.86 11.0867 1417.53 11.58C1417.19 12.0733 1416.71 12.6267 1416.07 13.24L1411.29 17.78L1410.75 16.8H1418.93V19H1408.61ZM1424.83 19.2C1423.84 19.2 1422.87 19.06 1421.93 18.78C1420.99 18.4867 1420.21 18.0867 1419.57 17.58L1420.69 15.56C1421.19 15.9733 1421.81 16.3067 1422.53 16.56C1423.25 16.8133 1424 16.94 1424.79 16.94C1425.72 16.94 1426.45 16.7533 1426.97 16.38C1427.49 15.9933 1427.75 15.4733 1427.75 14.82C1427.75 14.18 1427.51 13.6733 1427.03 13.3C1426.55 12.9267 1425.77 12.74 1424.71 12.74H1423.43V10.96L1427.43 6.2L1427.77 7.18H1420.25V5H1429.79V6.74L1425.79 11.5L1424.43 10.7H1425.21C1426.93 10.7 1428.21 11.0867 1429.07 11.86C1429.93 12.62 1430.37 13.6 1430.37 14.8C1430.37 15.5867 1430.17 16.3133 1429.77 16.98C1429.37 17.6467 1428.75 18.1867 1427.93 18.6C1427.11 19 1426.08 19.2 1424.83 19.2Z" fill="black"/>
<path d="M1463.22 19.2C1462.13 19.2 1461.08 19.0467 1460.08 18.74C1459.08 18.42 1458.29 18.0133 1457.7 17.52L1458.6 15.5C1459.16 15.94 1459.85 16.3067 1460.68 16.6C1461.51 16.8933 1462.35 17.04 1463.22 17.04C1463.95 17.04 1464.55 16.96 1465 16.8C1465.45 16.64 1465.79 16.4267 1466 16.16C1466.21 15.88 1466.32 15.5667 1466.32 15.22C1466.32 14.7933 1466.17 14.4533 1465.86 14.2C1465.55 13.9333 1465.15 13.7267 1464.66 13.58C1464.18 13.42 1463.64 13.2733 1463.04 13.14C1462.45 13.0067 1461.86 12.8533 1461.26 12.68C1460.67 12.4933 1460.13 12.26 1459.64 11.98C1459.16 11.6867 1458.77 11.3 1458.46 10.82C1458.15 10.34 1458 9.72667 1458 8.98C1458 8.22 1458.2 7.52667 1458.6 6.9C1459.01 6.26 1459.63 5.75333 1460.46 5.38C1461.3 4.99333 1462.36 4.8 1463.64 4.8C1464.48 4.8 1465.31 4.90667 1466.14 5.12C1466.97 5.33333 1467.69 5.64 1468.3 6.04L1467.48 8.06C1466.85 7.68667 1466.21 7.41333 1465.54 7.24C1464.87 7.05333 1464.23 6.96 1463.62 6.96C1462.9 6.96 1462.31 7.04667 1461.86 7.22C1461.42 7.39333 1461.09 7.62 1460.88 7.9C1460.68 8.18 1460.58 8.5 1460.58 8.86C1460.58 9.28667 1460.73 9.63333 1461.02 9.9C1461.33 10.1533 1461.72 10.3533 1462.2 10.5C1462.69 10.6467 1463.24 10.7933 1463.84 10.94C1464.44 11.0733 1465.03 11.2267 1465.62 11.4C1466.22 11.5733 1466.76 11.8 1467.24 12.08C1467.73 12.36 1468.13 12.74 1468.42 13.22C1468.73 13.7 1468.88 14.3067 1468.88 15.04C1468.88 15.7867 1468.67 16.48 1468.26 17.12C1467.86 17.7467 1467.24 18.2533 1466.4 18.64C1465.56 19.0133 1464.5 19.2 1463.22 19.2ZM1477.48 19.2C1475.56 19.2 1474.05 18.66 1472.96 17.58C1471.88 16.5 1471.34 14.94 1471.34 12.9V5H1473.94V12.8C1473.94 14.24 1474.24 15.2867 1474.86 15.94C1475.48 16.5933 1476.36 16.92 1477.5 16.92C1478.63 16.92 1479.5 16.5933 1480.12 15.94C1480.73 15.2867 1481.04 14.24 1481.04 12.8V5H1483.6V12.9C1483.6 14.94 1483.05 16.5 1481.96 17.58C1480.88 18.66 1479.38 19.2 1477.48 19.2ZM1487.24 19V5H1489.38L1495.5 15.22H1494.38L1500.4 5H1502.54L1502.56 19H1500.1L1500.08 8.86H1500.6L1495.48 17.4H1494.32L1489.12 8.86H1489.72V19H1487.24ZM1506.34 19V5H1508.48L1514.6 15.22H1513.48L1519.5 5H1521.64L1521.66 19H1519.2L1519.18 8.86H1519.7L1514.58 17.4H1513.42L1508.22 8.86H1508.82V19H1506.34ZM1527.84 10.82H1534.8V12.96H1527.84V10.82ZM1528.04 16.82H1535.94V19H1525.44V5H1535.66V7.18H1528.04V16.82ZM1538.84 19V5H1544.6C1545.84 5 1546.9 5.2 1547.78 5.6C1548.67 6 1549.36 6.57333 1549.84 7.32C1550.32 8.06667 1550.56 8.95333 1550.56 9.98C1550.56 11.0067 1550.32 11.8933 1549.84 12.64C1549.36 13.3733 1548.67 13.94 1547.78 14.34C1546.9 14.7267 1545.84 14.92 1544.6 14.92H1540.28L1541.44 13.74V19H1538.84ZM1548 19L1544.46 13.92H1547.24L1550.8 19H1548ZM1541.44 14.02L1540.28 12.78H1544.48C1545.63 12.78 1546.49 12.5333 1547.06 12.04C1547.65 11.5467 1547.94 10.86 1547.94 9.98C1547.94 9.08667 1547.65 8.4 1547.06 7.92C1546.49 7.44 1545.63 7.2 1544.48 7.2H1540.28L1541.44 5.92V14.02ZM1550.99 21L1557.59 2.16H1559.83L1553.23 21H1550.99ZM1563.27 11.44H1570.25V13.64H1563.27V11.44ZM1563.49 19H1560.89V5H1571.11V7.18H1563.49V19ZM1571.04 19L1577.34 5H1579.9L1586.22 19H1583.5L1578.08 6.38H1579.12L1573.72 19H1571.04ZM1573.94 15.76L1574.64 13.72H1582.2L1582.9 15.76H1573.94ZM1588 19V5H1590.6V16.8H1597.92V19H1588ZM1599.97 19V5H1602.57V16.8H1609.89V19H1599.97ZM1622.4 10.54L1622.24 5H1624.4L1624.22 10.54H1622.4ZM1626.61 19V17.26L1632.17 11.98C1632.63 11.54 1632.98 11.1533 1633.21 10.82C1633.43 10.4867 1633.58 10.18 1633.65 9.9C1633.73 9.60667 1633.77 9.33333 1633.77 9.08C1633.77 8.44 1633.55 7.94667 1633.11 7.6C1632.67 7.24 1632.02 7.06 1631.17 7.06C1630.49 7.06 1629.87 7.18 1629.31 7.42C1628.76 7.66 1628.29 8.02667 1627.89 8.52L1626.07 7.12C1626.61 6.38667 1627.35 5.82 1628.27 5.42C1629.2 5.00667 1630.24 4.8 1631.39 4.8C1632.4 4.8 1633.28 4.96667 1634.03 5.3C1634.79 5.62 1635.37 6.08 1635.77 6.68C1636.18 7.28 1636.39 7.99333 1636.39 8.82C1636.39 9.27333 1636.33 9.72667 1636.21 10.18C1636.09 10.62 1635.86 11.0867 1635.53 11.58C1635.19 12.0733 1634.71 12.6267 1634.07 13.24L1629.29 17.78L1628.75 16.8H1636.93V19H1626.61ZM1642.83 19.2C1641.84 19.2 1640.87 19.06 1639.93 18.78C1638.99 18.4867 1638.21 18.0867 1637.57 17.58L1638.69 15.56C1639.19 15.9733 1639.81 16.3067 1640.53 16.56C1641.25 16.8133 1642 16.94 1642.79 16.94C1643.72 16.94 1644.45 16.7533 1644.97 16.38C1645.49 15.9933 1645.75 15.4733 1645.75 14.82C1645.75 14.18 1645.51 13.6733 1645.03 13.3C1644.55 12.9267 1643.77 12.74 1642.71 12.74H1641.43V10.96L1645.43 6.2L1645.77 7.18H1638.25V5H1647.79V6.74L1643.79 11.5L1642.43 10.7H1643.21C1644.93 10.7 1646.21 11.0867 1647.07 11.86C1647.93 12.62 1648.37 13.6 1648.37 14.8C1648.37 15.5867 1648.17 16.3133 1647.77 16.98C1647.37 17.6467 1646.75 18.1867 1645.93 18.6C1645.11 19 1644.08 19.2 1642.83 19.2Z" fill="black"/>
</svg>
